<svg width="117" height="74" xmlns="http://www.w3.org/2000/svg" version="1.1">
 <!-- Generator: Sketch 56.3 (81716) - https://sketch.com -->

 <title>card_master</title>
 <desc>Created with Sketch.</desc>
 <g>
  <title>Layer 1</title>
  <g stroke="null" fill-rule="evenodd" fill="none" id="export-badges">
   <g stroke="null" id="production">
    <g stroke="null" id="card_master">
     <g stroke="null" id="logo">
      <polygon stroke="null" points="42.76623213291168,65.11822509765625 74.09728300571442,65.11822509765625 74.09728300571442,8.815742492675781 42.76623213291168,8.815742492675781 " fill="#FF5F00" id="Fill-2"/>
      <path stroke="null" fill="#EB001B" id="Fill-3" d="m44.75549,36.96797c0,-11.42241 5.34816,-21.59558 13.67627,-28.15223c-6.09018,-4.79415 -13.77574,-7.65474 -22.12871,-7.65474c-19.7744,0 -35.80398,16.03058 -35.80398,35.80697c0,19.7754 16.02958,35.80597 35.80398,35.80597c8.35297,0 16.03853,-2.86057 22.12871,-7.65472c-8.32811,-6.55667 -13.67627,-16.72982 -13.67627,-28.15125"/>
      <path stroke="null" fill="#F79E1B" id="Fill-4" d="m115.24647,59.15535l0,-1.38951l-0.36305,0l-0.41674,0.95585l-0.41776,-0.95585l-0.36303,0l0,1.38951l0.2566,0l0,-1.04835l0.3909,0.90414l0.26557,0l0.39189,-0.90612l0,1.05034l0.25562,0zm-2.29761,0l0,-1.15278l0.46451,0l0,-0.23474l-1.18362,0l0,0.23474l0.46449,0l0,1.15278l0.25462,0l0,0z"/>
      <path stroke="null" fill="#F79E1B" id="Fill-5" d="m116.36444,36.96797c0,19.7754 -16.02958,35.80597 -35.80398,35.80597c-8.35296,0 -16.03853,-2.86057 -22.12869,-7.65472c8.3281,-6.55667 13.67626,-16.72982 13.67626,-28.15125c0,-11.42241 -5.34816,-21.59558 -13.67626,-28.15223c6.09016,-4.79415 13.77574,-7.65474 22.12869,-7.65474c19.7744,0 35.80398,16.03058 35.80398,35.80697"/>
     </g>
    </g>
   </g>
  </g>
 </g>
</svg>