<svg width="80" height="80" xmlns="http://www.w3.org/2000/svg" version="1.1">
 <title>alipay copy 2</title>

 <g>
  <title>Layer 1</title>
  <g stroke="null" id="export-badges" fill="none" fill-rule="evenodd">
   <g stroke="null" id="production">
    <g stroke="null" id="alipay-copy-2">
     <rect stroke="null" id="Rectangle-11" fill="#FFFFFF" x="-17.11724" y="-66.33333" width="318.99998" height="212.66665" rx="4"/>
     <g stroke="null" id="Group-12-Copy">
      <path stroke="null" d="m65.69228,0.83342c6.74783,0 12.20555,5.63867 12.20555,12.61145l0,0l0,40.70791c0,0 -2.48086,-0.20538 -13.3963,-3.99938c-3.07622,-1.12772 -7.14443,-2.66626 -11.70863,-4.40919c2.77806,-4.92174 4.9608,-10.56137 6.35031,-16.61083l0,0l-14.98364,0l0,-5.63965l18.35802,0l0,-3.07609l-18.35802,0l0,-9.33094l-7.54105,0c-1.29014,0 -1.29014,1.33313 -1.29014,1.33313l0,0l0,7.99781l-18.55586,0l0,3.07609l18.45649,0l0,5.63965l-15.38027,0l0,3.07606l29.76855,0c-1.09138,3.89573 -2.58026,7.588 -4.267,10.86947c-9.62529,-3.28147 -19.94537,-5.94773 -26.39507,-4.30748c-4.06821,1.02601 -6.7469,2.97436 -8.33518,4.92174c-7.14446,9.02379 -1.98487,22.76299 13.19753,22.76299c8.93056,0 17.5639,-5.22886 24.3108,-13.6365c10.02285,5.02348 29.76945,13.53477 29.76945,13.53477l0,0l0,0.81964c0,6.97278 -5.45772,12.61241 -12.30495,12.61241l0,0l-51.89662,0c-6.74783,0 -12.20555,-5.63963 -12.20555,-12.71414l0,0l0,-53.62746c0,-6.97278 5.45772,-12.61145 12.20555,-12.61145l0,0l51.99601,0zm-43.16899,39.29221c7.06827,-0.77028 13.73683,2.08945 21.50113,6.16021c-5.47404,7.5906 -12.44262,12.32249 -19.41027,12.32249c-12.04477,0 -15.62829,-10.12182 -9.65576,-15.62297c1.99114,-1.87008 5.57468,-2.75055 7.5649,-2.85973z" id="Combined-Shape" fill="#00A0E9"/>
      <path stroke="null" d="m196.5327,26.94104c2.02368,0 3.94696,0.39843 5.56703,1.19622c1.71957,0.79782 3.13689,1.89422 4.35148,3.19029c1.21555,1.39501 2.126,2.99062 2.73237,4.78497c0.60823,1.79437 1.01277,3.68764 1.01277,5.78153c0,2.59219 -0.40455,4.98374 -1.1132,7.17747c-0.81005,2.19281 -1.82189,4.08793 -3.34059,5.68261c-1.41734,1.59468 -3.13689,2.88985 -5.16153,3.78749c-2.02464,0.89764 -4.35244,1.39594 -6.88203,1.39594c-1.31691,0 -2.43014,0 -3.34155,-0.09985c-0.91048,-0.09892 -1.82189,-0.29861 -2.73234,-0.69797l0,12.76024l-9.71576,0l0,-42.36772c0,-0.49828 0.20084,-0.99656 0.50591,-1.29517c0.40359,-0.39936 0.80909,-0.59812 1.31502,-0.59812l7.89482,0l0,2.49235c1.1132,-0.89767 2.42916,-1.69453 3.8465,-2.29358c1.41639,-0.59812 3.13691,-0.89671 5.06109,-0.89671zm60.52668,0.09982l10.22262,19.63817l8.40169,-18.44192c0.20275,-0.39936 0.40455,-0.69797 0.80909,-0.89764c0.4055,-0.19969 0.81005,-0.29861 1.21459,-0.29861l5.56703,0l-16.19419,35.48888c-3.94693,9.66977 -13.36046,8.27385 -15.08099,8.27385l0,-5.38403l0.54334,0.00045c1.70891,-0.00638 5.3378,-0.14342 7.04737,-2.09341c0.40455,-0.49828 0.91048,-1.39499 1.1132,-1.99404c0.30318,-0.59719 0.50593,-1.09547 0.81005,-1.59375l1.11323,-2.5931l-15.89104,-30.10485l10.32401,0zm-87.14721,1.0964l0,31.90013l-10.12219,0l0,-30.30375c0,-0.49828 0.10232,-0.69965 0.50686,-1.0981c0.40455,-0.39843 0.91141,-0.49828 1.41734,-0.49828l8.19798,0zm66.29739,-0.09985c3.4007,0.95671 7.17423,3.47593 7.47066,7.64521l0.01869,0.52975l0,23.02723l-10.0199,0l0,-1.19625c-12.04547,5.28325 -19.33299,-1.79437 -19.33299,-9.37025c0,-4.38654 3.13784,-11.16556 11.9441,-11.06574c1.85536,0.08321 4.1331,0.30443 6.18791,0.49142l1.20098,0.10671l0,-1.6945c0,-5.48295 -2.43012,-7.17747 -15.28371,-4.98467c-0.30318,-0.79689 -0.60825,-2.19281 -0.91144,-2.9906c8.09758,-2.09296 14.06915,-1.79437 18.7257,-0.4983zm-84.5162,-11.96242l0,42.86599l-10.22262,0l0,-41.07162c0,-0.49828 0.20179,-0.89767 0.60727,-1.2961c0.40457,-0.39843 0.91048,-0.49828 1.41641,-0.49828l8.19894,0zm-34.31259,0l20.04165,42.86599l-10.72948,0l-3.33966,-6.97871l-20.64799,0l-3.64471,6.97871l-7.18617,0l20.34484,-41.47008c0.20179,-0.39936 0.50591,-0.69795 0.91045,-0.99749c0.3244,-0.23888 0.64818,-0.35055 1.02378,-0.38567l0.2922,-0.01276l2.93509,0zm76.92456,16.94709c-0.60634,0 -1.21459,0.09985 -1.82189,0.29861c-0.6073,0.19967 -1.1132,0.49921 -1.62007,0.89764c-0.50593,0.39843 -1.01184,0.79686 -1.51778,1.29607c-0.50591,0.4983 -0.91048,0.99658 -1.31595,1.59468l0,14.15525c0,0.79779 0.10232,1.49576 0.40548,2.19374c0.30318,0.69795 0.70869,1.29607 1.21459,1.79435c0.50593,0.49828 1.21366,0.89674 1.92232,1.19625c0.70866,0.29858 1.62007,0.39843 2.43012,0.39843c0.80909,0 1.61914,-0.29858 2.32782,-0.79779c0.70866,-0.59719 1.41639,-1.29517 1.92229,-2.29265c0.50593,-0.99656 1.0128,-2.19281 1.31691,-3.58779c0.30318,-1.39592 0.50591,-2.89171 0.50591,-4.48639c0,-2.09389 -0.10136,-3.88824 -0.40548,-5.48292c-0.30318,-1.59468 -0.70869,-2.89078 -1.21459,-3.98718c-0.50593,-1.09733 -1.11323,-1.8942 -1.82189,-2.39247c-0.70866,-0.49921 -1.51775,-0.79782 -2.3278,-0.79782zm34.71714,9.07074c-3.64378,0.30047 -6.57887,3.19029 -6.57887,6.97871c0,3.78749 2.93509,6.87886 6.57887,6.97778c1.64054,0 3.03398,-0.56535 4.18103,-1.54981l0.3732,-0.34348l0,-11.26445c-0.80909,-0.49828 -2.22548,-0.99751 -4.55423,-0.79875zm-115.69002,-12.06134l-9.31217,18.9402l18.21883,0l-8.90667,-18.9402z" id="Combined-Shape" fill="#3E3A39"/>
      <path stroke="null" d="m170.29525,18.73333c0,2.95357 -2.33984,5.31667 -5.31667,5.31667c-2.97683,0 -5.31667,-2.3631 -5.31667,-5.31667c0,-2.95357 2.33984,-5.31667 5.31667,-5.31667c2.97683,0 5.31667,2.3631 5.31667,5.31667" id="Fill-8" fill="#00A0E9"/>
     </g>
    </g>
   </g>
  </g>
 </g>
</svg>