<svg xmlns="http://www.w3.org/2000/svg" xmlns:xlink="http://www.w3.org/1999/xlink" width="34" height="34" viewBox="0 0 34 34">
  <defs>
    <clipPath id="clip-Ali_pay">
      <rect width="34" height="34"/>
    </clipPath>
  </defs>
  <g id="Ali_pay" data-name="Ali pay" clip-path="url(#clip-Ali_pay)">
    <rect width="34" height="34" fill="#fff"/>
    <g id="Grupo_16614" data-name="Grupo 16614" transform="translate(-54 -143)">
      <path id="Caminho_4662" data-name="Caminho 4662" d="M79.182,243.107a6.815,6.815,0,0,0-3.332,1.222c-2.666,2.332-1.111,6.441,4.332,6.441,3.11,0,6.221-2,8.664-5.108-3.555-1.666-6.443-2.887-9.664-2.554Z" transform="translate(-16.767 -81.676)" fill="#2ba6df" fill-rule="evenodd"/>
      <path id="Caminho_4663" data-name="Caminho 4663" d="M81.968,164.305A40.114,40.114,0,0,0,88,166.071V148.409A5.424,5.424,0,0,0,82.516,143H59.484A5.5,5.5,0,0,0,54,148.409v23.182A5.424,5.424,0,0,0,59.484,177H82.516A5.5,5.5,0,0,0,88,171.591v-.221s-8.774-3.643-13.271-5.851c-2.961,3.643-6.8,5.961-10.858,5.961-6.8,0-9.1-5.961-5.813-9.825a6.307,6.307,0,0,1,3.729-2.1c2.852-.662,7.458.442,11.735,1.877a21.541,21.541,0,0,0,1.865-4.636H62.116v-1.325h6.8v-2.649H60.581V151.5h8.335v-3.422a.54.54,0,0,1,.548-.552h3.29v4.084h8.226v1.214H72.755v2.429h6.69a27.961,27.961,0,0,1-2.852,7.175c2.194.773,4.058,1.435,5.374,1.877Z" fill="#2ba6df" fill-rule="evenodd"/>
    </g>
  </g>
</svg>
