
<svg xmlns="http://www.w3.org/2000/svg" width="55.914" height="22.96" viewBox="0 0 55.914 22.96">
  <g id="Group_38" data-name="Group 38" transform="translate(-1079.305 -4038.517)">
    <path id="Path_157" data-name="Path 157" d="M6151.544,80.269a3.9,3.9,0,0,1-.132,1.352,4,4,0,0,1-2.391,2.722,2.575,2.575,0,0,1-1.192.184,2.336,2.336,0,0,1,.009-.774,4.189,4.189,0,0,1,3.17-3.408c.127-.03.256-.051.384-.076Z" transform="translate(-5061.05 3958.248)" fill="#fff"/>
    <path id="Path_158" data-name="Path 158" d="M6922.7,222.845l-.465-.043c-.048,0-.094-.013-.145-.021v-2.036l.533.028a2.9,2.9,0,0,0,1.184-.144,1.793,1.793,0,0,0,.888-.745,3.985,3.985,0,0,0,.418-.958c.062-.194.128-.387.184-.582a.327.327,0,0,0,0-.176q-1.211-3.363-2.428-6.723-.989-2.73-1.974-5.46c-.013-.036-.022-.074-.037-.12h2.759q1.554,5.024,3.111,10.056l.035,0a.642.642,0,0,0,.049-.1q.732-2.361,1.464-4.722.79-2.559,1.581-5.12a.142.142,0,0,1,.165-.122c.8,0,1.61,0,2.414,0h.137a1.067,1.067,0,0,1-.029.109q-2.348,6.583-4.7,13.166a8.351,8.351,0,0,1-1.067,2.107,3.661,3.661,0,0,1-2.52,1.517c-.241.036-.483.059-.725.087Z" transform="translate(-5797.354 3838.632)" fill="#fff"/>
    <path id="Path_159" data-name="Path 159" d="M6005.776,175.949a4.092,4.092,0,0,0,.459,7.273c-.012.042-.021.087-.035.13a10.045,10.045,0,0,1-1.25,2.514,9.2,9.2,0,0,1-1.179,1.487,2.489,2.489,0,0,1-1.343.724,2.684,2.684,0,0,1-1.432-.2,10.121,10.121,0,0,0-1.05-.4,3.529,3.529,0,0,0-2.328.2,8.68,8.68,0,0,1-1.056.38,2.077,2.077,0,0,1-1.977-.541,7.734,7.734,0,0,1-1.156-1.335,11.587,11.587,0,0,1-1.994-4.5,8.432,8.432,0,0,1-.074-3.471,5.056,5.056,0,0,1,1.8-3.071,4.277,4.277,0,0,1,2.718-.956,4.018,4.018,0,0,1,1.41.309c.349.129.694.262,1.043.391a1.4,1.4,0,0,0,1,0c.468-.173.934-.35,1.4-.513a4.055,4.055,0,0,1,1.487-.257,4.33,4.33,0,0,1,3.185,1.383c.127.139.239.293.363.447" transform="translate(-4911.91 3868.862)" fill="#fff"/>
    <path id="Path_160" data-name="Path 160" d="M6422.494,111.373a4.984,4.984,0,0,0-2.154-2.911,5.744,5.744,0,0,0-3.155-.877c-2.1-.005-4.206,0-6.308,0-.039,0-.078,0-.118.006V124.6h2.64V118.79h3.657a6.339,6.339,0,0,0,1.622-.2,5.107,5.107,0,0,0,3.645-3.139,6.147,6.147,0,0,0,.172-4.082m-2.613,3.031a2.845,2.845,0,0,1-2.108,2,4.96,4.96,0,0,1-1.339.167q-1.46,0-2.92,0c-.035,0-.071,0-.111-.005v-6.748a.639.639,0,0,1,.081-.01c1.013,0,2.026,0,3.039,0a4.429,4.429,0,0,1,1.657.3,2.782,2.782,0,0,1,1.735,1.982,4.256,4.256,0,0,1-.034,2.31" transform="translate(-5311.507 3932.234)" fill="#fff"/>
    <path id="Path_161" data-name="Path 161" d="M6687.358,206.552a3.647,3.647,0,0,0-2.087-3.426,5.585,5.585,0,0,0-2.088-.588,6.748,6.748,0,0,0-2.911.294,4.395,4.395,0,0,0-2.215,1.578,3.4,3.4,0,0,0-.645,1.888h2.377a2.026,2.026,0,0,1,1.39-1.538,3.48,3.48,0,0,1,2.388.021,1.76,1.76,0,0,1,1.178,1.3,7.755,7.755,0,0,1,.075,1.558c-.036.006-.062.013-.086.014-1.117.067-2.234.13-3.35.2a7.8,7.8,0,0,0-2.293.461,3.816,3.816,0,0,0-1.532,1,3.046,3.046,0,0,0-.768,2.116,3.379,3.379,0,0,0,2.052,3.267,4.79,4.79,0,0,0,2.946.365,4.155,4.155,0,0,0,3.034-2.034.421.421,0,0,1,.065-.066l.026.013v2.023h2.438c0-.037.006-.069.006-.1q0-4.176,0-8.353m-2.542,3.226a8.715,8.715,0,0,1-.038,1.024,2.48,2.48,0,0,1-1.41,1.919,3.527,3.527,0,0,1-2.918.184,1.521,1.521,0,0,1-1.052-1.185,1.538,1.538,0,0,1,.979-1.784,3.881,3.881,0,0,1,1.323-.305c1-.069,2-.13,3-.194.035,0,.071,0,.118,0,0,.116,0,.228,0,.34" transform="translate(-5564.891 3841.833)" fill="#fff"/>
  </g>
</svg>
