<svg xmlns="http://www.w3.org/2000/svg" xmlns:xlink="http://www.w3.org/1999/xlink" width="34" height="34" viewBox="0 0 34 34">
  <defs>
    <clipPath id="clip-Bank_tranfer">
      <rect width="34" height="34"/>
    </clipPath>
  </defs>
  <g id="Bank_tranfer" data-name="Bank tranfer" clip-path="url(#clip-Bank_tranfer)">
    <rect width="34" height="34" fill="#fff"/>
    <g id="Grupo_16609" data-name="Grupo 16609">
      <path id="Caminho_4667" data-name="Caminho 4667" d="M0,0H34V34H0Z" fill="none"/>
      <path id="Caminho_4668" data-name="Caminho 4668" d="M27.9,21.654A12.123,12.123,0,0,0,24.843,8.016,11.691,11.691,0,0,0,11.132,6.58L9.666,3.975a14.588,14.588,0,0,1,14.724.036,15.114,15.114,0,0,1,6.085,19.154l1.984,1.161L26.3,27.646l-.244-7.071L27.9,21.654ZM6.1,12.346A12.123,12.123,0,0,0,9.158,25.984a11.691,11.691,0,0,0,13.71,1.436l1.466,2.605A14.588,14.588,0,0,1,9.61,29.989,15.114,15.114,0,0,1,3.525,10.835L1.54,9.676,7.7,6.355l.244,7.071L6.1,12.347ZM11.827,20h8.129a.75.75,0,0,0,0-1.5H14.044a3.75,3.75,0,0,1,0-7.5h1.478V9.5h2.956V11h3.7v3H14.044a.75.75,0,0,0,0,1.5h5.912a3.75,3.75,0,0,1,0,7.5H18.478v1.5H15.522V23h-3.7Z" transform="translate(0 0)" fill="#25282a"/>
    </g>
  </g>
</svg>
