<svg id="Grupo_2743" data-name="Grupo 2743" xmlns="http://www.w3.org/2000/svg" width="106.411" height="31.504" viewBox="0 0 106.411 31.504">
  <path id="Caminho_3417" data-name="Caminho 3417" d="M457.855,817.374l1.344-3.021h-7.112c-2.931,0-4.667,1.789-4.667,4.233,0,2.54,1.642,4,4.2,4h3.192a1.111,1.111,0,0,1,1.214,1.116,1.1,1.1,0,0,1-1.214,1.1H447.83v3.021h6.945c2.93,0,4.667-1.771,4.667-4.368,0-2.444-1.531-3.868-4.2-3.868h-3.191a1.111,1.111,0,0,1-1.214-1.116,1.1,1.1,0,0,1,1.214-1.1Zm-19.358,1.1a1.1,1.1,0,0,1,1.213-1.1h5.806l1.344-3.021h-7.112c-2.931,0-4.667,1.789-4.667,4.233,0,2.54,1.643,4,4.2,4h3.193a1.11,1.11,0,0,1,1.213,1.116,1.1,1.1,0,0,1-1.213,1.1H435.49v3.021h6.946c2.93,0,4.666-1.771,4.666-4.368,0-2.444-1.531-3.868-4.2-3.868H439.71a1.11,1.11,0,0,1-1.213-1.116Zm-15.513,9.352h10.977V824.8H426.4v-2.29h7.374v-2.944H426.4v-2.193h7.561v-3.021H422.984v13.47Zm-.541,0-4.368-4.907A4.189,4.189,0,0,0,421.6,818.7c0-2.579-1.793-4.349-4.667-4.349h-7.486v13.47h3.416v-4.772h1.325l4.033,4.772Zm-5.861-7.7h-3.715v-2.752h3.715a1.407,1.407,0,0,1,1.587,1.386c0,.77-.542,1.366-1.587,1.366Zm-8.6-1.231a4.329,4.329,0,0,0-4.667-4.541h-7.579v13.47h3.416v-4.388H403.2a4.431,4.431,0,0,0,4.779-4.541Zm-3.435.019a1.449,1.449,0,0,1-1.587,1.5h-3.808v-3.04h3.808a1.468,1.468,0,0,1,1.587,1.539Zm-9.109,8.91-5.414-6.793,5.376-6.677h-4.181l-3.174,4.137-3.173-4.137h-4.294l5.395,6.754-5.376,6.716h4.181l3.174-4.176,3.192,4.176Zm-26.1,0h10.977V824.8h-7.561v-2.29h7.374v-2.944h-7.374v-2.193h7.561v-3.021H369.336v13.47Z" transform="translate(-353.03 -796.319)" fill="#016fd0"/>
  <path id="Caminho_3418" data-name="Caminho 3418" d="M302.579,638.52V625.05h-3.4V633.4l-5.377-8.351h-4.331V638.52h3.416V629.86l5.545,8.659Zm-17.323,0h3.865l-5.769-13.469H278.91l-5.769,13.469h3.771l1.1-2.752h6.124l1.119,2.752Zm-2.314-5.677h-3.734l1.867-4.618,1.867,4.618Zm-11.018-4.675h3.622V625.05h-3.883c-4.237,0-6.515,2.809-6.515,6.638v.193c0,4.136,2.39,6.638,6.253,6.638h.28l1.4-3.021h-1.1c-2.147,0-3.416-1.308-3.416-3.617v-.193a3.184,3.184,0,0,1,3.36-3.521Zm-11.85,10.352h3.416V625.05h-3.416V638.52Zm-.541,0-4.368-4.907a4.189,4.189,0,0,0,3.528-4.214c0-2.578-1.792-4.349-4.667-4.349h-7.486V638.52h3.416v-4.772h1.325l4.032,4.772Zm-5.862-7.7h-3.715v-2.751h3.715a1.407,1.407,0,0,1,1.587,1.385c0,.77-.542,1.366-1.587,1.366Zm-20.048,7.7H244.6V635.5h-7.56v-2.29h7.374v-2.944H237.04v-2.193h7.56V625.05H233.623V638.52Zm-5.656,0h3.379V625.05h-5.376l-3.006,8.6-3.024-8.6h-5.432V638.52h3.379v-9.967l3.547,9.967h2.987l3.547-9.967v9.967Zm-17.677,0h3.864l-5.768-13.469h-4.443l-5.768,13.469h3.771l1.1-2.752h6.123l1.12,2.752Zm-2.315-5.677h-3.734l1.867-4.618,1.867,4.618Z" transform="translate(-198.175 -625.05)" fill="#016fd0"/>
</svg>
