<svg xmlns="http://www.w3.org/2000/svg" width="98.197" height="31.71" viewBox="0 0 98.197 31.71">
  <path id="Caminho_3584" data-name="Caminho 3584" d="M3174.568-548.425c-.056,4.418,3.936,6.883,6.945,8.348,3.09,1.5,4.128,2.468,4.116,3.812-.024,2.059-2.465,2.967-4.749,3a16.571,16.571,0,0,1-8.148-1.937l-1.437,6.721a23.893,23.893,0,0,0,8.823,1.627c8.333,0,13.786-4.113,13.815-10.491.032-8.094-11.2-8.542-11.119-12.16.026-1.1,1.073-2.268,3.368-2.565A14.931,14.931,0,0,1,3194-550.7l1.394-6.5a21.256,21.256,0,0,0-7.424-1.362c-7.844,0-13.36,4.17-13.405,10.138M3208.8-558a3.618,3.618,0,0,0-3.377,2.25l-11.9,28.423h8.327l1.657-4.58h10.176l.961,4.58h7.34l-6.4-30.672H3208.8m1.164,8.286,2.4,11.517h-6.581l4.177-11.517M3164.473-558l-6.564,30.672h7.935L3172.405-558h-7.932m-11.739,0-8.26,20.877-3.342-17.751a3.7,3.7,0,0,0-3.658-3.125h-13.5l-.189.891a33.035,33.035,0,0,1,7.828,2.61,3.356,3.356,0,0,1,1.884,2.695l6.328,24.477h8.386L3161.066-558h-8.332" transform="translate(-3123.784 558.563)" fill="#15195a"/>
</svg>
