<svg id="Grupo_2771" data-name="Grupo 2771" xmlns="http://www.w3.org/2000/svg" width="61.871" height="47.991" viewBox="0 0 61.871 47.991">
  <g id="Grupo_2745" data-name="Grupo 2745">
    <g id="Grupo_2509" data-name="Grupo 2509" transform="translate(3.148 40.746)">
      <path id="Caminho_3364" data-name="Caminho 3364" d="M2726.16-743.212a1.524,1.524,0,0,1,1.541-1.626,1.523,1.523,0,0,1,1.53,1.626,1.523,1.523,0,0,1-1.53,1.626,1.524,1.524,0,0,1-1.541-1.626m4.112,0v-2.539h-1.1v.617a1.928,1.928,0,0,0-1.605-.744,2.544,2.544,0,0,0-2.539,2.666,2.544,2.544,0,0,0,2.539,2.667,1.928,1.928,0,0,0,1.605-.745v.617h1.1Zm37.312,0a1.524,1.524,0,0,1,1.54-1.626,1.523,1.523,0,0,1,1.531,1.626,1.523,1.523,0,0,1-1.531,1.626,1.524,1.524,0,0,1-1.54-1.626m4.112,0v-4.578h-1.1v2.656a1.923,1.923,0,0,0-1.6-.744,2.545,2.545,0,0,0-2.541,2.666,2.545,2.545,0,0,0,2.541,2.667,1.923,1.923,0,0,0,1.6-.745v.617h1.1Zm-27.718-1.678a1.261,1.261,0,0,1,1.285,1.232h-2.635a1.308,1.308,0,0,1,1.35-1.232m.022-.989a2.48,2.48,0,0,0-2.529,2.666,2.5,2.5,0,0,0,2.6,2.667,3.086,3.086,0,0,0,2.082-.712l-.541-.818a2.431,2.431,0,0,1-1.478.532,1.411,1.411,0,0,1-1.519-1.244h3.771c.012-.138.022-.276.022-.425a2.435,2.435,0,0,0-2.411-2.666m13.332,2.666a1.524,1.524,0,0,1,1.54-1.626,1.523,1.523,0,0,1,1.531,1.626,1.522,1.522,0,0,1-1.531,1.626,1.523,1.523,0,0,1-1.54-1.626m4.111,0v-2.539h-1.1v.617a1.925,1.925,0,0,0-1.6-.744,2.544,2.544,0,0,0-2.54,2.666,2.544,2.544,0,0,0,2.54,2.667,1.925,1.925,0,0,0,1.6-.745v.617h1.1Zm-10.347,0a2.566,2.566,0,0,0,2.709,2.667,2.66,2.66,0,0,0,1.827-.606l-.531-.893a2.229,2.229,0,0,1-1.329.457,1.517,1.517,0,0,1-1.53-1.626,1.518,1.518,0,0,1,1.53-1.626,2.231,2.231,0,0,1,1.329.457l.531-.893a2.662,2.662,0,0,0-1.827-.605,2.565,2.565,0,0,0-2.709,2.666m14.237-2.666a1.5,1.5,0,0,0-1.339.744v-.617h-1.1v5.078H2764v-2.847c0-.84.361-1.307,1.083-1.307a1.784,1.784,0,0,1,.691.127l.341-1.041a2.355,2.355,0,0,0-.786-.139m-29.6.531a3.8,3.8,0,0,0-2.071-.531c-1.286,0-2.115.616-2.115,1.626,0,.828.616,1.339,1.752,1.5l.522.074c.6.085.891.244.891.531,0,.393-.4.616-1.158.616a2.7,2.7,0,0,1-1.688-.531l-.521.86a3.666,3.666,0,0,0,2.2.659c1.466,0,2.317-.691,2.317-1.658,0-.892-.669-1.36-1.774-1.519l-.52-.075c-.478-.063-.862-.159-.862-.5,0-.372.36-.595.967-.595a3.274,3.274,0,0,1,1.583.435Zm14.248-.531a1.5,1.5,0,0,0-1.339.744v-.617h-1.094v5.078h1.1v-2.847c0-.84.363-1.307,1.084-1.307a1.787,1.787,0,0,1,.692.127l.341-1.041a2.352,2.352,0,0,0-.786-.139m-9.424.128h-1.806v-1.541h-1.115v1.541h-1.03v1.009h1.03v2.317c0,1.178.458,1.88,1.763,1.88a2.589,2.589,0,0,0,1.381-.393l-.319-.946a2.036,2.036,0,0,1-.977.287c-.552,0-.733-.341-.733-.85v-2.295h1.806Zm-16.51,5.078v-3.187a1.89,1.89,0,0,0-2-2.018,1.967,1.967,0,0,0-1.785.9,1.863,1.863,0,0,0-1.678-.9,1.679,1.679,0,0,0-1.486.754v-.626h-1.1v5.078h1.115v-2.815a1.189,1.189,0,0,1,1.244-1.35c.733,0,1.1.478,1.1,1.339v2.826h1.115v-2.815a1.2,1.2,0,0,1,1.243-1.35c.754,0,1.116.478,1.116,1.339v2.826Z" transform="translate(-2715.993 747.79)" fill="#231f20"/>
    </g>
    <path id="Caminho_3365" data-name="Caminho 3365" d="M2784.841-816.085h-16.734v-30.074h16.734Z" transform="translate(-2745.541 850.251)" fill="#ff5f00"/>
    <g id="Grupo_2510" data-name="Grupo 2510" transform="translate(0 0)">
      <path id="Caminho_3366" data-name="Caminho 3366" d="M2731.182-838.013a19.1,19.1,0,0,1,7.3-15.037,19.044,19.044,0,0,0-11.82-4.089,19.126,19.126,0,0,0-19.125,19.127,19.126,19.126,0,0,0,19.125,19.127,19.042,19.042,0,0,0,11.82-4.09,19.1,19.1,0,0,1-7.3-15.037" transform="translate(-2707.543 857.14)" fill="#eb001b"/>
    </g>
    <g id="Grupo_2511" data-name="Grupo 2511" transform="translate(30.926 0)">
      <path id="Caminho_3367" data-name="Caminho 3367" d="M2821.483-838.013a19.125,19.125,0,0,1-19.124,19.127,19.047,19.047,0,0,1-11.821-4.09,19.091,19.091,0,0,0,7.306-15.037,19.09,19.09,0,0,0-7.306-15.037,19.049,19.049,0,0,1,11.821-4.089,19.125,19.125,0,0,1,19.124,19.127" transform="translate(-2790.538 857.14)" fill="#f79e1b"/>
    </g>
  </g>
</svg>
