<svg xmlns="http://www.w3.org/2000/svg" width="24" height="24" viewBox="0 0 24 24"><defs><style>.a{fill:none;}.b{fill:rgba(60,60,67,0.6);}</style></defs><g transform="translate(-0.056)"><rect class="a" width="24" height="24" transform="translate(0.056)"/><path class="b" d="M10.968,15a11.673,11.673,0,0,1-6.706-2.1A11.831,11.831,0,0,1,0,7.5,11.83,11.83,0,0,1,4.261,2.1a11.741,11.741,0,0,1,13.413,0,11.831,11.831,0,0,1,4.261,5.4,11.831,11.831,0,0,1-4.261,5.4A11.673,11.673,0,0,1,10.968,15Zm0-12.5a5,5,0,1,0,4.986,5A5,5,0,0,0,10.968,2.5Zm0,8a3,3,0,1,1,2.992-3A3,3,0,0,1,10.968,10.5Z" transform="translate(1.102 4.5)"/></g></svg>