<svg xmlns="http://www.w3.org/2000/svg" width="21.936" height="19.92" viewBox="0 0 21.936 19.92">
  <path id="Caminho_4578" data-name="Caminho 4578" d="M1106.357,513.867a11.726,11.726,0,0,0-1.56-.916l.979-1.7a1.3,1.3,0,1,0-2.252-1.3l-1.219,2.112a11.781,11.781,0,0,0-13.622,7.2,11.832,11.832,0,0,0,5.819,6.315l-.978,1.693a1.3,1.3,0,0,0,2.252,1.3l1.218-2.109a11.789,11.789,0,0,0,9.363-1.8,11.834,11.834,0,0,0,4.261-5.4A11.824,11.824,0,0,0,1106.357,513.867Zm-11.72,5.386a5,5,0,0,1,5.014-4.986,4.921,4.921,0,0,1,1.275.188l-1.059,1.834c-.078-.005-.152-.023-.232-.022a3,3,0,0,0-2.466,4.695l-1.063,1.842A4.988,4.988,0,0,1,1094.637,519.253Zm10,.028a4.938,4.938,0,0,1-6.268,4.8l1.062-1.84c.074.005.145.022.22.022a3,3,0,0,0,2.992-3v-.008a2.979,2.979,0,0,0-.519-1.679l1.06-1.836a4.982,4.982,0,0,1,1.453,3.523Z" transform="translate(-1088.683 -509.305)" fill="#7f7f83"/>
</svg>
