<svg xmlns="http://www.w3.org/2000/svg" width="29.207" height="29" viewBox="0 0 29.207 29"><defs><style>.a,.b,.c{fill:none;stroke:#000;}.a,.b{stroke-linecap:round;stroke-linejoin:round;}.b{stroke-width:1.4px;opacity:0;}.c{stroke-miterlimit:10;}</style></defs><g transform="translate(-959.3 -314)"><g transform="translate(960 314.5)"><g transform="translate(1.109)"><path class="a" d="M910.477,1184.671v4.436a4.436,4.436,0,0,1-4.436,4.436h-4.436" transform="translate(-883.586 -1165.542)"/><path class="a" d="M901.606,1168.671h4.436a4.436,4.436,0,0,1,4.436,4.436v4.436" transform="translate(-883.586 -1168.671)"/><path class="a" d="M885.606,1177.542v-4.436a4.436,4.436,0,0,1,4.436-4.436h4.436" transform="translate(-885.606 -1168.671)"/><path class="a" d="M894.477,1193.542h-4.436a4.436,4.436,0,0,1-4.436-4.436v-4.436" transform="translate(-885.606 -1165.542)"/></g><line class="b" x1="27.807" transform="translate(0 14.483)"/><g transform="translate(6.002 6.004)"><ellipse class="c" cx="4.88" cy="4.737" rx="4.88" ry="4.737" transform="translate(3.118)"/><path class="c" d="M874.208,560a8.166,8.166,0,0,0-16,0Z" transform="translate(-858.212 -544.007)"/></g></g></g></svg>