<svg xmlns="http://www.w3.org/2000/svg" width="46" height="46" viewBox="0 0 46 46">
  <g id="Grupo_2947" data-name="Grupo 2947" transform="translate(-1266 -421)">
    <g id="Elipse_172" data-name="Elipse 172" transform="translate(1266 421)" fill="none" stroke="rgba(0,0,0,0.12)" stroke-width="1">
      <circle cx="23" cy="23" r="23" stroke="none"/>
      <circle cx="23" cy="23" r="22.5" fill="none"/>
    </g>
    <g id="Grupo_2946" data-name="Grupo 2946" transform="translate(6330 5585)">
      <rect id="Retângulo_1850" data-name="Retângulo 1850" width="22" height="22" transform="translate(-5052 -5152)" fill="none"/>
      <path id="Caminho_3589" data-name="Caminho 3589" d="M877.414,836.519a6.318,6.318,0,0,0-4.463,1.831l-.22.218-.219-.218a6.357,6.357,0,0,0-8.929,0,6.212,6.212,0,0,0,0,8.844h0l.22.217,8.933,8.844,8.92-8.837.22-.218a6.2,6.2,0,0,0,.025-8.835,6.337,6.337,0,0,0-4.482-1.843Z" transform="translate(-5913.731 -5987.017)" fill="#242628" stroke="#25282a" stroke-linejoin="round" stroke-width="1"/>
    </g>
  </g>
</svg>
