<svg xmlns="http://www.w3.org/2000/svg" width="46" height="46" viewBox="0 0 46 46"><defs><style>.a,.b,.c{fill:none;}.a{stroke:rgba(0,0,0,0.12);}.c{stroke:#25282a;stroke-linejoin:round;}.d{stroke:none;}</style></defs><g transform="translate(-1266 -421)"><g class="a" transform="translate(1266 421)"><circle class="d" cx="23" cy="23" r="23"/><circle class="b" cx="23" cy="23" r="22.5"/></g><g transform="translate(6330 5585)"><rect class="b" width="22" height="22" transform="translate(-5052 -5152)"/><path class="c" d="M877.414,836.519a6.318,6.318,0,0,0-4.463,1.831l-.22.218-.219-.218a6.357,6.357,0,0,0-8.929,0,6.212,6.212,0,0,0,0,8.844h0l.22.217,8.933,8.844,8.92-8.837.22-.218a6.2,6.2,0,0,0,.025-8.835,6.337,6.337,0,0,0-4.482-1.843Z" transform="translate(-5913.731 -5987.017)"/></g></g></svg>