<svg xmlns="http://www.w3.org/2000/svg" width="21" height="21" viewBox="0 0 21 21"><defs><style>.a{fill:#737578;fill-rule:evenodd;}.b{fill:none;}</style></defs><path class="a" d="M10.5,1.867a32.2,32.2,0,0,1,4.2.117,5.411,5.411,0,0,1,1.983.35,4.1,4.1,0,0,1,1.983,1.983,5.411,5.411,0,0,1,.35,1.983c0,1.05.117,1.4.117,4.2a32.2,32.2,0,0,1-.117,4.2,5.411,5.411,0,0,1-.35,1.983,4.1,4.1,0,0,1-1.983,1.983,5.411,5.411,0,0,1-1.983.35c-1.05,0-1.4.117-4.2.117a32.2,32.2,0,0,1-4.2-.117,5.411,5.411,0,0,1-1.983-.35,4.1,4.1,0,0,1-1.983-1.983,5.411,5.411,0,0,1-.35-1.983c0-1.05-.117-1.4-.117-4.2a32.2,32.2,0,0,1,.117-4.2,5.411,5.411,0,0,1,.35-1.983A4.19,4.19,0,0,1,3.15,3.15a1.972,1.972,0,0,1,1.167-.817A5.411,5.411,0,0,1,6.3,1.983a32.2,32.2,0,0,1,4.2-.117M10.5,0A34.472,34.472,0,0,0,6.183.117,7.2,7.2,0,0,0,3.617.583,4.567,4.567,0,0,0,1.75,1.75,4.567,4.567,0,0,0,.583,3.617,5.316,5.316,0,0,0,.117,6.183,34.472,34.472,0,0,0,0,10.5a34.472,34.472,0,0,0,.117,4.317,7.2,7.2,0,0,0,.467,2.567A4.567,4.567,0,0,0,1.75,19.25a4.567,4.567,0,0,0,1.867,1.167,7.2,7.2,0,0,0,2.567.467A34.472,34.472,0,0,0,10.5,21a34.472,34.472,0,0,0,4.317-.117,7.2,7.2,0,0,0,2.567-.467,4.895,4.895,0,0,0,3.033-3.033,7.2,7.2,0,0,0,.467-2.567c0-1.167.117-1.517.117-4.317a34.472,34.472,0,0,0-.117-4.317,7.2,7.2,0,0,0-.467-2.567A4.567,4.567,0,0,0,19.25,1.75,4.567,4.567,0,0,0,17.383.583,7.2,7.2,0,0,0,14.817.117,34.472,34.472,0,0,0,10.5,0m0,5.133A5.28,5.28,0,0,0,5.133,10.5,5.367,5.367,0,1,0,10.5,5.133M10.5,14A3.438,3.438,0,0,1,7,10.5,3.438,3.438,0,0,1,10.5,7,3.438,3.438,0,0,1,14,10.5,3.438,3.438,0,0,1,10.5,14M16.1,3.617A1.283,1.283,0,1,0,17.383,4.9,1.295,1.295,0,0,0,16.1,3.617"/><rect class="b" width="10" height="21" transform="translate(5.75)"/></svg>