<svg xmlns="http://www.w3.org/2000/svg" width="69.802" height="81.555" viewBox="0 0 69.802 81.555"><defs><style>.a{fill:#25282a;}</style></defs><g transform="translate(-560.198 -162.943)"><path class="a" d="M988.991,512.514v31.068h3V545H979.367v-1.419h3.159V508.3h-3.159v-1.42h9.625l9.4,34.285,9.4-34.285h9.626v1.42h-3.16v35.285h3.16V545h-12.629v-1.419h3V512.514l-8.542,31.068h-1.718Z" transform="translate(-417.768 -343.174)"/><path class="a" d="M1360.946,1031.94v31.068h3v1.419H1351.32v-1.419h3.158v-35.285h-3.158v-1.42h9.626l9.4,34.285,9.4-34.285h9.626v1.42h-3.161v35.285h3.161v1.419h-12.629v-1.419h3V1031.94l-8.542,31.068h-1.719Z" transform="translate(-759.837 -820.866)"/><path class="a" d="M1481.15,525.185l1.592,0a19.2,19.2,0,0,1-4.062,8.686,9.191,9.191,0,0,1-4.119,2.725,15.2,15.2,0,0,1-5.177.8,15.485,15.485,0,0,1-9.038-3,19.5,19.5,0,0,1-5.8-7.373,20.36,20.36,0,0,1-2.081-9.317,21.136,21.136,0,0,1,2.51-10.484,19.991,19.991,0,0,1,7.106-7.786,13.8,13.8,0,0,1,3.753-1.43,18.1,18.1,0,0,1,4.011-.447,15.252,15.252,0,0,1,4.681.712,12.756,12.756,0,0,1,4.174,2.25l2.1-2.2h1.434v10.816l-1.649,0a12.229,12.229,0,0,0-3.617-7.415,10.353,10.353,0,0,0-7.175-2.748,9.633,9.633,0,0,0-4.389.785,8.137,8.137,0,0,0-3.148,3.1,15.762,15.762,0,0,0-2.062,7.487q-.171,4.261-.051,7.872-.04,2.5.078,5.539a26.262,26.262,0,0,0,.893,5.88,8.381,8.381,0,0,0,8.108,6.337c3.466.085,6.493-1.17,7.98-2.955a18.673,18.673,0,0,0,3.954-7.835" transform="translate(-852.742 -334.615)"/><path class="a" d="M989.984,1044.616l1.591,0a19.229,19.229,0,0,1-4.061,8.685,9.2,9.2,0,0,1-4.119,2.725,15.15,15.15,0,0,1-5.178.8,15.474,15.474,0,0,1-9.037-3,19.487,19.487,0,0,1-5.8-7.374,20.355,20.355,0,0,1-2.083-9.318,21.167,21.167,0,0,1,2.51-10.483,20.017,20.017,0,0,1,7.106-7.787,13.809,13.809,0,0,1,3.753-1.429,18.1,18.1,0,0,1,4.011-.446,15.248,15.248,0,0,1,4.682.71,12.781,12.781,0,0,1,4.174,2.251l2.1-2.2h1.433v10.815l-1.648,0a12.231,12.231,0,0,0-3.62-7.415,10.347,10.347,0,0,0-7.173-2.748,9.645,9.645,0,0,0-4.39.786,8.129,8.129,0,0,0-3.147,3.1,15.791,15.791,0,0,0-2.064,7.487q-.169,4.262-.049,7.872-.042,2.5.079,5.538a26.3,26.3,0,0,0,.891,5.88,8.379,8.379,0,0,0,8.11,6.337c3.466.086,6.491-1.17,7.98-2.955a18.72,18.72,0,0,0,3.954-7.836" transform="translate(-401.095 -812.328)"/></g></svg>