
<svg xmlns="http://www.w3.org/2000/svg" width="43.742" height="27.095" viewBox="0 0 43.742 27.095">
  <g id="Group_34" data-name="Group 34" transform="translate(-856.877 -4036.795)">
    <path id="Path_18" data-name="Path 18" d="M1604.816,317.69a.934.934,0,0,0-1.58.514c-.02.082.026.08.083.08.274,0,.549,0,.823,0s.557,0,.836,0c.057,0,.1,0,.084-.08a1.091,1.091,0,0,0-.246-.514" transform="translate(-725.327 3731.984)" fill="#fff"/>
    <path id="Path_19" data-name="Path 19" d="M1350.268,318.3a1.115,1.115,0,0,0-.842,1.214,1.08,1.08,0,0,0,1.7.86,1.135,1.135,0,0,0,.448-1.158,1.063,1.063,0,0,0-1.3-.917" transform="translate(-483.171 3731.171)" fill="#fff"/>
    <path id="Path_20" data-name="Path 20" d="M1830.5,318.309a1.149,1.149,0,1,0,1.049,1.164,1.073,1.073,0,0,0-1.049-1.164" transform="translate(-941.103 3731.135)" fill="#fff"/>
    <path id="Path_21" data-name="Path 21" d="M1988.965,318.311a1.038,1.038,0,0,0-1.133-.069,1.079,1.079,0,0,0-.572,1.007c0,.066.006.117.01.169a1.068,1.068,0,0,0,1.313.965,1.011,1.011,0,0,0,.816-.872,1.128,1.128,0,0,0-.434-1.2" transform="translate(-1091.729 3731.327)" fill="#fff"/>
    <path id="Path_22" data-name="Path 22" d="M1188.858,55.865a.551.551,0,0,1-.013-.188c0-.071,0-.142,0-.212a7.851,7.851,0,0,0-.123-1.37,13.567,13.567,0,0,0-4.681-8.2,13.191,13.191,0,0,0-3.25-2.019,12.783,12.783,0,0,0-4.776-1.108,16.224,16.224,0,0,0-2.135.048,13.5,13.5,0,0,0-5.112,1.617,13.645,13.645,0,0,0-1.627,1.064c-.059.045-.132.08-.155.161h-.009a.042.042,0,0,0-.007-.011,13.366,13.366,0,0,0-6.813-2.79A13.529,13.529,0,0,0,1145.2,57.831a12.934,12.934,0,0,0,1.38,4.59,13.429,13.429,0,0,0,4.563,5.125A13.294,13.294,0,0,0,1157,69.709a13.53,13.53,0,0,0,3.556-.035,13.319,13.319,0,0,0,4.414-1.437,12.479,12.479,0,0,0,2.01-1.314h.009s0,0,0,0c.013.061.066.088.109.121a13.228,13.228,0,0,0,2.19,1.374,13.632,13.632,0,0,0,2.03.814,13.477,13.477,0,0,0,3.479.6,13.211,13.211,0,0,0,1.967-.066,13.657,13.657,0,0,0,2.841-.61,13.338,13.338,0,0,0,2.489-1.112,13.2,13.2,0,0,0,2.415-1.772,14.431,14.431,0,0,0,1.136-1.175,13.761,13.761,0,0,0,1.729-2.555,13.487,13.487,0,0,0,1.448-4.806c.02-.2.008-.409.039-.612v-.077c-.028-.05-.007-.105-.013-.157s-.015-.12.013-.178Zm-35.981,2.484c-.18-.007-.361-.009-.541,0-.1.005-.137-.019-.136-.13.006-.623,0-1.245,0-1.868a1.41,1.41,0,0,0-.077-.493.642.642,0,0,0-.561-.446.853.853,0,0,0-1.024.947q-.005.927,0,1.855c0,.107-.026.14-.134.134-.18-.009-.361-.008-.541,0-.1,0-.122-.022-.121-.12,0-.618,0-1.237,0-1.855a1.874,1.874,0,0,0-.028-.333.746.746,0,0,0-.973-.62.8.8,0,0,0-.644.767c-.028.416-.008.832-.012,1.248,0,.27,0,.541,0,.811,0,.08-.023.1-.1.1-.2-.006-.4,0-.593,0-.066,0-.1-.007-.1-.088q0-1.713,0-3.426c0-.066.016-.09.086-.088.206,0,.412,0,.618,0,.063,0,.082.02.08.081,0,.105,0,.211,0,.328.024-.015.036-.019.042-.027a1.373,1.373,0,0,1,2.14.084c.071.107.1.023.128-.021a1.566,1.566,0,0,1,2.235-.124,1.424,1.424,0,0,1,.368.975c.006.73,0,1.46,0,2.19,0,.1-.031.122-.124.118m4.434,0c-.206,0-.412,0-.618,0-.073,0-.085-.027-.083-.09,0-.1,0-.2,0-.331a2.117,2.117,0,0,1-.336.3,2.04,2.04,0,0,1-.541.205h-.567c-.026-.045-.076-.034-.114-.043a1.79,1.79,0,0,1-1.355-1.554,1.95,1.95,0,0,1,.547-1.684,1.741,1.741,0,0,1,1.942-.326,1.45,1.45,0,0,1,.423.351c0-.129,0-.234,0-.338,0-.066.015-.09.085-.088q.309.007.618,0c.071,0,.086.026.085.09q0,1.712,0,3.425c0,.066-.019.089-.088.088m3.664-.288a1.7,1.7,0,0,1-.846.343c-.023,0-.053-.011-.063.025h-.773a1.031,1.031,0,0,0-.3-.076,2.622,2.622,0,0,1-.763-.328c-.065-.041-.076-.073-.032-.14.1-.147.187-.3.273-.45.038-.067.062-.075.132-.029a1.986,1.986,0,0,0,1.538.278l.025,0c.233-.064.366-.2.367-.374,0-.156-.108-.256-.36-.325-.282-.077-.577-.083-.861-.147a2.145,2.145,0,0,1-.379-.119.931.931,0,0,1-.637-.854,1.018,1.018,0,0,1,.574-1,2.206,2.206,0,0,1,1.267-.184,2.507,2.507,0,0,1,1.017.294c.08.045.116.076.055.171a3.657,3.657,0,0,0-.236.441c-.041.089-.076.079-.151.042a2.082,2.082,0,0,0-1.267-.236.623.623,0,0,0-.3.127.291.291,0,0,0,.07.523,2.415,2.415,0,0,0,.615.124,3.049,3.049,0,0,1,.854.222,1,1,0,0,1,.188,1.679m3.777.142a1.719,1.719,0,0,1-.579.2c-.022,0-.053-.013-.061.026h-.619c-.007-.036-.039-.026-.061-.032a1,1,0,0,1-.816-.964c-.045-.441-.011-.883-.02-1.325,0-.18,0-.361,0-.541,0-.082-.024-.1-.1-.1-.18.006-.361,0-.541,0-.067,0-.088-.017-.086-.085q.007-.277,0-.554c0-.069.02-.087.088-.086.176,0,.352,0,.528,0,.088,0,.117-.018.114-.111-.007-.288,0-.575-.005-.863,0-.1.03-.121.122-.117.193.007.387.007.58,0,.083,0,.1.023.1.1,0,.288,0,.575,0,.863,0,.095.016.131.122.129.348-.008.7,0,1.043-.005.09,0,.118.024.115.114-.007.163-.007.326,0,.489,0,.093-.016.125-.118.123-.352-.007-.7,0-1.056,0-.086,0-.106.024-.106.107,0,.515,0,1.03,0,1.546a.507.507,0,0,0,.669.553,1.668,1.668,0,0,0,.537-.193c.07.206.138.409.209.611.02.058-.007.084-.053.111m4.05-1.483c0,.1-.032.137-.14.136-.8,0-1.607,0-2.41-.006-.126,0-.126.041-.1.136a1.021,1.021,0,0,0,1.152.732,1.682,1.682,0,0,0,.856-.318c.066-.048.093-.044.135.025.086.143.179.282.277.418.047.065.046.1-.022.151a2.092,2.092,0,0,1-.986.409c-.02,0-.044,0-.05.026h-.722c-.048-.051-.115-.042-.174-.057a1.733,1.733,0,0,1-1.294-1.5,2.319,2.319,0,0,1,.091-1.029,1.7,1.7,0,0,1,1.778-1.178,1.644,1.644,0,0,1,1.557,1.379,2.953,2.953,0,0,1,.051.678m3.062-1.893c-.067.2-.133.4-.2.6-.018.056-.034.075-.1.051a1.153,1.153,0,0,0-.365-.065.712.712,0,0,0-.8.7,6.127,6.127,0,0,0-.012.63c0,.5,0,1,0,1.493,0,.087-.019.12-.112.116-.193-.007-.386,0-.579,0-.066,0-.1-.008-.1-.088q0-1.712,0-3.425c0-.077.028-.091.1-.09.2,0,.4,0,.592,0,.076,0,.1.024.092.1-.005.1,0,.194,0,.318a1.406,1.406,0,0,1,.388-.363,1.355,1.355,0,0,1,1.049-.063c.058.016.063.044.046.093m3.39,3.234a1.759,1.759,0,0,1-.82.342c-.018,0-.033,0-.037.026h-.748c-.051-.054-.124-.044-.187-.061a1.8,1.8,0,0,1-1.35-1.95,1.69,1.69,0,0,1,.981-1.546,2.071,2.071,0,0,1,2.15.154c.066.045.077.078.032.148-.1.151-.189.306-.276.463-.039.072-.066.085-.14.035a1.419,1.419,0,0,0-.933-.264,1.049,1.049,0,0,0-1,1.009,1.111,1.111,0,0,0,.671,1.2,1.35,1.35,0,0,0,1.183-.146c.165-.095.164-.1.259.064.079.133.153.268.238.4.042.063.026.091-.029.13m4.051.289c-.188-.009-.378-.006-.567,0-.073,0-.1-.019-.094-.093.006-.1,0-.2,0-.332a1.446,1.446,0,0,1-.647.442c-.075.024-.158.014-.225.063h-.593c-.023-.048-.073-.037-.111-.047a1.787,1.787,0,0,1-1.335-1.528,1.949,1.949,0,0,1,.555-1.718,1.7,1.7,0,0,1,2.116-.194c.08.061.15.135.241.217,0-.122,0-.227,0-.332,0-.062.018-.082.08-.08.206,0,.412,0,.618,0,.07,0,.093.023.085.088a.627.627,0,0,0,0,.077q0,1.655,0,3.31c0,.1-.02.134-.125.129m3.413-3.533c-.068.207-.137.414-.2.622-.019.06-.048.053-.1.036a1.225,1.225,0,0,0-.378-.065.709.709,0,0,0-.786.689c-.009.085-.013.171-.013.257,0,.627,0,1.253,0,1.88,0,.089-.022.118-.114.115-.193-.007-.386,0-.579,0-.068,0-.1-.011-.1-.089q0-1.712,0-3.425c0-.064.013-.09.084-.089.2,0,.4.005.605,0,.078,0,.094.027.091.1,0,.094,0,.189,0,.316.053-.063.087-.1.123-.145a1.216,1.216,0,0,1,1.316-.279c.049.014.063.036.047.082m3.807,3.533a3.76,3.76,0,0,0-.5,0c-.122.009-.146-.038-.136-.144.008-.083,0-.168,0-.281a1.537,1.537,0,0,1-.5.387c-.119.055-.25.066-.369.116h-.593c-.018-.047-.065-.036-.1-.044a1.785,1.785,0,0,1-1.343-1.508,1.977,1.977,0,0,1,.482-1.671,1.728,1.728,0,0,1,2.129-.308,1.692,1.692,0,0,1,.277.25c.034-.037.017-.077.017-.112,0-.537,0-1.073,0-1.61,0-.092.016-.128.118-.123.184.009.369.007.554,0,.089,0,.116.021.115.112,0,.537,0,1.073,0,1.61,0,1.06,0,2.121,0,3.181,0,.122-.035.15-.149.144" transform="translate(-288.239 3994.043)" fill="#fff"/>
  </g>
</svg>
