<?xml version="1.0" encoding="UTF-8"?>
<svg xmlns="http://www.w3.org/2000/svg" xmlns:xlink="http://www.w3.org/1999/xlink" width="34px" height="34px" viewBox="0 0 34 34" version="1.1">
<g id="surface1">
<path style=" stroke:none;fill-rule:nonzero;fill:#fff;fill-opacity:1;" d="M 6.269531 2.828125 C 5.363281 3.066406 4.597656 3.835938 4.359375 4.726562 C 4.257812 5.113281 4.066406 7.460938 4.113281 7.691406 C 4.203125 8.09375 4.792969 8.304688 5.140625 8.058594 C 5.371094 7.902344 5.425781 7.65625 5.535156 6.351562 C 5.597656 5.671875 5.671875 5.039062 5.707031 4.949219 C 5.808594 4.671875 6.132812 4.339844 6.425781 4.210938 C 6.683594 4.085938 7.152344 4.078125 17 4.078125 C 26.847656 4.078125 27.316406 4.085938 27.574219 4.210938 C 27.867188 4.339844 28.191406 4.671875 28.292969 4.949219 C 28.328125 5.039062 28.402344 5.652344 28.457031 6.308594 C 28.519531 6.976562 28.582031 7.59375 28.601562 7.699219 C 28.722656 8.308594 29.75 8.304688 29.886719 7.691406 C 29.933594 7.460938 29.742188 5.113281 29.640625 4.726562 C 29.445312 3.992188 28.75 3.203125 28.035156 2.910156 L 27.640625 2.753906 L 17.136719 2.742188 C 8.179688 2.726562 6.574219 2.742188 6.269531 2.828125 Z M 6.269531 2.828125 "/>
<path style=" stroke:none;fill-rule:nonzero;fill:#fff;fill-opacity:1;" d="M 4.726562 10.316406 C 4.445312 10.457031 4.285156 10.609375 4.175781 10.824219 C 4.113281 10.949219 3.828125 13.246094 3.394531 17.101562 C 2.644531 23.753906 2.660156 23.488281 3.066406 23.699219 C 3.167969 23.753906 3.320312 23.800781 3.398438 23.800781 C 3.632812 23.800781 3.917969 23.617188 4 23.414062 C 4.039062 23.308594 4.351562 20.761719 4.691406 17.753906 C 5.023438 14.742188 5.3125 12.273438 5.324219 12.265625 C 5.332031 12.253906 6.304688 14.53125 7.480469 17.328125 C 9.390625 21.855469 9.648438 22.433594 9.894531 22.679688 C 10.464844 23.257812 11.292969 23.257812 11.867188 22.679688 C 12.109375 22.433594 12.371094 21.847656 14.28125 17.328125 C 15.457031 14.53125 16.421875 12.253906 16.4375 12.265625 C 16.449219 12.273438 16.734375 14.742188 17.066406 17.753906 C 17.40625 20.761719 17.722656 23.308594 17.761719 23.414062 C 17.84375 23.617188 18.128906 23.800781 18.359375 23.800781 C 18.441406 23.800781 18.589844 23.753906 18.691406 23.699219 C 19.101562 23.488281 19.113281 23.753906 18.367188 17.089844 C 17.714844 11.289062 17.667969 10.96875 17.511719 10.730469 C 17.3125 10.429688 16.898438 10.199219 16.578125 10.199219 C 16.265625 10.207031 15.824219 10.417969 15.660156 10.648438 C 15.585938 10.757812 14.492188 13.300781 13.226562 16.300781 C 11.960938 19.304688 10.90625 21.761719 10.878906 21.761719 C 10.851562 21.761719 9.796875 19.304688 8.535156 16.300781 C 7.269531 13.300781 6.175781 10.757812 6.097656 10.648438 C 5.828125 10.261719 5.140625 10.089844 4.726562 10.316406 Z M 4.726562 10.316406 "/>
<path style=" stroke:none;fill-rule:nonzero;fill:#fff;fill-opacity:1;" d="M 20.625 10.566406 L 20.433594 10.730469 L 20.414062 16.882812 C 20.40625 20.746094 20.421875 23.097656 20.460938 23.207031 C 20.503906 23.304688 20.609375 23.441406 20.71875 23.507812 C 20.890625 23.625 21.148438 23.628906 24.480469 23.628906 C 28.363281 23.628906 28.429688 23.625 29.234375 23.242188 C 29.816406 22.964844 30.566406 22.230469 30.863281 21.644531 C 31.457031 20.476562 31.394531 19.136719 30.703125 18.054688 C 30.410156 17.597656 29.738281 16.988281 29.28125 16.761719 L 28.898438 16.578125 L 29.210938 16.144531 C 29.8125 15.308594 30.050781 14.183594 29.824219 13.238281 C 29.511719 11.921875 28.398438 10.769531 27.132812 10.480469 C 26.949219 10.4375 25.636719 10.402344 23.820312 10.402344 L 20.816406 10.402344 Z M 27.300781 11.980469 C 27.722656 12.199219 28.1875 12.6875 28.375 13.109375 C 28.59375 13.601562 28.585938 14.464844 28.347656 14.960938 C 28.097656 15.503906 27.796875 15.808594 27.28125 16.0625 C 26.832031 16.285156 26.824219 16.285156 25.535156 16.320312 C 24.828125 16.339844 24.1875 16.382812 24.121094 16.414062 C 23.976562 16.484375 23.800781 16.804688 23.800781 17 C 23.800781 17.195312 23.976562 17.515625 24.121094 17.585938 C 24.1875 17.617188 25.132812 17.660156 26.214844 17.679688 C 28.160156 17.714844 28.191406 17.714844 28.558594 17.890625 C 29.105469 18.140625 29.410156 18.441406 29.660156 18.957031 C 29.867188 19.367188 29.886719 19.46875 29.886719 19.992188 C 29.878906 20.679688 29.742188 21.046875 29.300781 21.523438 C 28.925781 21.921875 28.484375 22.148438 27.902344 22.234375 C 27.648438 22.269531 26.160156 22.304688 24.601562 22.304688 L 21.761719 22.304688 L 21.761719 11.757812 L 24.363281 11.777344 L 26.960938 11.796875 Z M 27.300781 11.980469 "/>
<path style=" stroke:none;fill-rule:nonzero;fill:#fff;fill-opacity:1;" d="M 2.515625 26.03125 C 2.347656 26.199219 2.320312 26.289062 2.269531 26.832031 C 2.242188 27.164062 2.21875 27.839844 2.21875 28.320312 L 2.210938 29.210938 L 2.46875 29.730469 C 2.769531 30.347656 3.160156 30.722656 3.808594 31.035156 L 4.25 31.246094 L 29.757812 31.246094 L 30.273438 30.996094 C 30.890625 30.6875 31.273438 30.292969 31.574219 29.660156 C 31.78125 29.21875 31.789062 29.179688 31.78125 28.320312 C 31.78125 27.832031 31.757812 27.164062 31.730469 26.832031 C 31.679688 26.289062 31.652344 26.199219 31.484375 26.03125 C 31.164062 25.710938 30.628906 25.804688 30.4375 26.207031 C 30.355469 26.390625 30.347656 26.59375 30.410156 27.621094 L 30.484375 28.824219 L 30.320312 29.152344 C 30.21875 29.34375 30.027344 29.558594 29.859375 29.683594 L 29.566406 29.886719 L 17.074219 29.90625 L 4.578125 29.921875 L 4.277344 29.761719 C 4.113281 29.675781 3.890625 29.472656 3.773438 29.316406 C 3.582031 29.050781 3.570312 28.980469 3.570312 28.4375 C 3.570312 28.109375 3.582031 27.484375 3.605469 27.042969 L 3.636719 26.234375 L 3.414062 26.039062 C 3.113281 25.773438 2.78125 25.765625 2.515625 26.03125 Z M 2.515625 26.03125 "/>
</g>
</svg>
