<?xml version="1.0" encoding="UTF-8"?>
<svg xmlns="http://www.w3.org/2000/svg" xmlns:xlink="http://www.w3.org/1999/xlink" width="52px" height="34px" viewBox="0 0 51 34" version="1.1">
<g id="surface1">
<path style=" stroke:none;fill-rule:nonzero;fill:rgb(0%,0%,0%);fill-opacity:1;" d="M 17.40625 3.164062 C 17.1875 4.066406 11.730469 28.109375 11.730469 28.183594 C 11.730469 28.265625 12.023438 28.277344 14.734375 28.277344 L 17.730469 28.277344 L 17.789062 28.058594 C 17.816406 27.941406 18.242188 26.089844 18.726562 23.945312 C 19.214844 21.800781 19.636719 19.988281 19.664062 19.917969 L 19.71875 19.789062 L 21.804688 19.789062 C 24.558594 19.789062 25.824219 19.679688 27.589844 19.292969 C 31.042969 18.542969 33.664062 16.902344 35.183594 14.539062 C 35.746094 13.671875 36.152344 12.613281 36.355469 11.5 C 36.503906 10.695312 36.511719 8.84375 36.363281 8.144531 C 35.960938 6.25 34.953125 4.921875 33.292969 4.101562 C 32.277344 3.601562 31.449219 3.359375 30.0625 3.160156 C 28.652344 2.953125 27.675781 2.925781 22.496094 2.925781 L 17.464844 2.925781 Z M 27.992188 8.253906 C 28.859375 8.515625 29.4375 8.9375 29.75 9.53125 C 29.914062 9.84375 29.949219 9.960938 29.964844 10.386719 C 30.039062 11.953125 29.210938 13.339844 27.75 14.113281 C 26.691406 14.671875 26.230469 14.738281 23.390625 14.78125 C 22.183594 14.796875 21.164062 14.796875 21.121094 14.78125 C 21.058594 14.757812 21.226562 14.0625 21.9375 11.488281 C 22.433594 9.699219 22.847656 8.195312 22.863281 8.15625 C 22.886719 8.09375 23.328125 8.082031 25.226562 8.097656 C 27.460938 8.121094 27.585938 8.128906 27.992188 8.253906 Z M 27.992188 8.253906 "/>
</g>
</svg>
