
<svg xmlns="http://www.w3.org/2000/svg" width="57.659" height="15.366" viewBox="0 0 57.659 15.366">
  <g id="Group_36" data-name="Group 36" transform="translate(-988.451 -4042.376)">
    <path id="Path_39" data-name="Path 39" d="M4612.254,282.608l1.575-2.318c.452-.665.906-1.328,1.354-2a.7.7,0,0,1,.637-.339c.668.007,1.335,0,2,0a.406.406,0,0,1,.414.2.4.4,0,0,1-.066.443q-3.549,5.117-7.1,10.237a.706.706,0,0,1-.628.329q-1-.006-2,0a.413.413,0,0,1-.414-.208.406.406,0,0,1,.076-.455c.693-.974,1.381-1.951,2.078-2.923a.336.336,0,0,0,.05-.346c-.766-2.232-1.521-4.469-2.294-6.7a.412.412,0,0,1,.417-.587c.64.021,1.281.006,1.922.006a.656.656,0,0,1,.747.56q.593,1.972,1.183,3.945c.012.04.025.08.046.145" transform="translate(-3597.688 3768.573)" fill="#fff"/>
    <path id="Path_40" data-name="Path 40" d="M5464.814,176.844c-.3,0-.593,0-.89,0a.38.38,0,0,1-.419-.49c.13-.83.264-1.66.395-2.49q.293-1.864.585-3.727.327-2.075.654-4.15c.065-.418.13-.835.2-1.252a.37.37,0,0,1,.405-.342q1,0,2,0a.366.366,0,0,1,.395.454c-.081.581-.176,1.16-.268,1.739q-.294,1.863-.59,3.727-.313,1.973-.625,3.946c-.108.684-.214,1.368-.326,2.051a.6.6,0,0,1-.627.533c-.3,0-.594,0-.89,0" transform="translate(-4422.036 3877.988)" fill="#fff"/>
    <path id="Path_41" data-name="Path 41" d="M4898.81,167.127a2.629,2.629,0,0,0-1.815-2.394,5.578,5.578,0,0,0-1.943-.335c-.741-.011-1.482,0-2.223,0v0h-2.318a.647.647,0,0,0-.708.6q-.332,2.106-.665,4.212-.564,3.586-1.128,7.172a.371.371,0,0,0,.393.467q1.12,0,2.239,0a.421.421,0,0,0,.464-.4q.254-1.573.5-3.146a.627.627,0,0,1,.687-.6c.429,0,.857,0,1.286,0a7.693,7.693,0,0,0,1.716-.178,4.082,4.082,0,0,0,2.669-1.84,5.825,5.825,0,0,0,.844-3.552m-3.343,1.15a3.062,3.062,0,0,1-.17.851,1.565,1.565,0,0,1-1.315,1.007,5.784,5.784,0,0,1-1.051.066c-.283,0-.48-.011-.675,0-.147.011-.159-.043-.138-.167.114-.693.222-1.387.332-2.081l.114-.72c.033-.205.15-.342.333-.344a7.78,7.78,0,0,1,1.582.066,1.122,1.122,0,0,1,.988,1.317" transform="translate(-3867.555 3877.986)" fill="#fff"/>
    <path id="Path_42" data-name="Path 42" d="M4022.558,167.1a2.569,2.569,0,0,0-1.35-2.184,4.563,4.563,0,0,0-1.973-.534c-.825-.056-1.651-.011-2.328-.026-.991,0-1.833,0-2.675,0a.636.636,0,0,0-.679.576q-.446,2.82-.89,5.639-.454,2.882-.907,5.765a.372.372,0,0,0,.39.47c.7,0,1.408,0,2.113,0a.613.613,0,0,0,.621-.545q.239-1.5.475-3.008a.626.626,0,0,1,.69-.595c.434,0,.868,0,1.3,0a7.459,7.459,0,0,0,1.7-.178,4.079,4.079,0,0,0,2.632-1.79,5.855,5.855,0,0,0,.878-3.591m-3.464,1.842a1.575,1.575,0,0,1-1.369,1.156,6.006,6.006,0,0,1-1.059.066c-.3,0-.514,0-.731,0-.079,0-.094-.018-.081-.1.155-.965.3-1.931.458-2.9a.341.341,0,0,1,.327-.314,7.706,7.706,0,0,1,1.567.064,1.1,1.1,0,0,1,1.007,1.209,2.815,2.815,0,0,1-.12.813" transform="translate(-3023.296 3878.025)" fill="#fff"/>
    <path id="Path_43" data-name="Path 43" d="M4300.307,272.576q-1.072-.007-2.144,0a.352.352,0,0,0-.365.309c-.036.187-.063.375-.1.612a1.923,1.923,0,0,0-1.249-.943,4.952,4.952,0,0,0-2.526-.051,5.081,5.081,0,0,0-3.646,5.98,3,3,0,0,0,1.828,2.284,4.179,4.179,0,0,0,4.445-.77c.043-.036.071-.093.142-.1-.028.171-.053.338-.082.5a.373.373,0,0,0,.384.476q.96,0,1.921,0a.6.6,0,0,0,.605-.522c.037-.213.067-.428.1-.642q.53-3.343,1.059-6.686a.368.368,0,0,0-.371-.446m-2.961,3.932a2.4,2.4,0,0,1-1.979,2.249,2.127,2.127,0,0,1-.474.045,2.244,2.244,0,0,1-.822-.147,1.543,1.543,0,0,1-.99-1.521,2.434,2.434,0,0,1,1.83-2.412,2.258,2.258,0,0,1,1.478.093,1.652,1.652,0,0,1,.958,1.693" transform="translate(-3291.536 3773.957)" fill="#fff"/>
    <path id="Path_44" data-name="Path 44" d="M5176.646,272.557q-1.064-.007-2.128,0a.358.358,0,0,0-.38.33c-.032.181-.062.362-.092.544-.017,0-.024,0-.027-.006a.64.64,0,0,1-.048-.062,1.874,1.874,0,0,0-1.1-.8,4.889,4.889,0,0,0-2.6-.076,5.078,5.078,0,0,0-3.649,5.968,3.012,3.012,0,0,0,1.922,2.335,4.2,4.2,0,0,0,4.189-.67c.1-.076.189-.164.3-.264-.028.189-.051.349-.077.51a.377.377,0,0,0,.412.491q.881,0,1.763,0c.48,0,.683-.187.757-.666.182-1.18.372-2.36.559-3.539q.289-1.824.577-3.649a.367.367,0,0,0-.376-.442m-4.854,6.164a2.557,2.557,0,0,1-1.148-.01,1.56,1.56,0,0,1-1.218-1.638,2.426,2.426,0,0,1,2.543-2.446,1.662,1.662,0,0,1,1.69,1.365,2.4,2.4,0,0,1-1.867,2.729" transform="translate(-4135.882 3773.976)" fill="#fff"/>
  </g>
</svg>
