<svg width="510" height="600" xmlns="http://www.w3.org/2000/svg">
 <title>Drawing</title>

 <g id="Layer_1">
  <title>Layer 1</title>
  <g stroke="null" id="svg_1">
   <path stroke="null" id="svg_2" fill="#253B80" d="m145.84108,578.03744l10.33832,-65.66709l-23.02894,-0.53372l-109.96568,0l76.42052,-484.55667c0.23721,-1.46278 1.00813,-2.82673 2.13487,-3.79533c1.12674,-0.9686 2.56975,-1.50232 4.07207,-1.50232l185.4176,0c61.55548,0 104.03548,12.80923 126.21443,38.09165c10.39762,11.8604 17.01967,24.25452 20.22198,37.89398c3.36045,14.31155 3.41975,31.41029 0.13837,52.26483l-0.23721,1.52208l0,13.36272l10.39762,5.89067c8.75693,4.64532 15.71503,9.96274 21.05221,16.05108c8.8953,10.14064 14.64759,23.02894 17.07898,38.30909c2.51045,15.71503 1.68022,34.41493 -2.43138,55.58574c-4.74416,24.35336 -12.41389,45.56371 -22.77197,62.91943c-9.52786,15.99177 -21.665,29.25566 -36.07539,39.53467c-13.75806,9.76506 -30.10565,17.17781 -48.58811,21.92197c-17.90921,4.66509 -38.32886,7.0174 -60.72525,7.0174l-14.43015,0c-10.31855,0 -20.34059,3.71626 -28.20799,10.37785c-7.88717,6.79996 -13.10574,16.09061 -14.7069,26.25102l-1.0872,5.91043l-18.26502,115.73774l-0.83023,4.24998c-0.21744,1.34418 -0.59302,2.01627 -1.14651,2.47092c-0.49418,0.41511 -1.20581,0.69186 -1.89766,0.69186l-89.09138,0z"/>
   <path stroke="null" id="svg_3" fill="#179BD7" d="m457.80916,153.29672l0,0l0,0c-0.55349,3.53835 -1.18604,7.15578 -1.89766,10.87203c-24.45219,125.54234 -108.10755,168.91187 -214.94999,168.91187l-54.3997,0c-13.06621,0 -24.07661,9.48832 -26.11265,22.37662l0,0l0,0l-27.85217,176.6409l-7.88717,50.07066c-1.32441,8.46042 5.19881,16.09061 13.7383,16.09061l96.48436,0c11.42552,0 21.13128,-8.30228 22.93011,-19.56966l0.94883,-4.9023l18.16618,-115.28309l1.16627,-6.32555c1.77906,-11.30692 11.50459,-19.6092 22.93011,-19.6092l14.43015,0c93.47972,0 166.6584,-37.95328 188.04665,-147.78059c8.93484,-45.87998 4.30928,-84.18908 -19.33245,-111.13195c-7.15578,-8.12437 -16.03131,-14.86504 -26.40916,-20.36035z"/>
   <path stroke="null" id="svg_4" fill="#222D65" d="m432.23023,143.09678c-3.73603,-1.0872 -7.59066,-2.07557 -11.54412,-2.9651c-3.97323,-0.86976 -8.04531,-1.64069 -12.23598,-2.31278c-14.66736,-2.37208 -30.73821,-3.49882 -47.95555,-3.49882l-145.32944,0c-3.57789,0 -6.97787,0.81046 -10.02204,2.27324c-6.70113,3.22208 -11.68249,9.56739 -12.8883,17.33595l-30.91611,195.81522l-0.88953,5.71276c2.03604,-12.8883 13.04644,-22.37662 26.11265,-22.37662l54.3997,0c106.84244,0 190.4978,-43.3893 214.94999,-168.91187c0.73139,-3.71626 1.34418,-7.33368 1.89766,-10.87203c-6.18718,-3.28138 -12.8883,-6.08834 -20.10338,-8.48019c-1.77906,-0.59302 -3.61742,-1.16627 -5.47555,-1.71976z"/>
   <path stroke="null" id="svg_5" fill="#253B80" d="m192.25479,153.92928c1.20581,-7.76856 6.18718,-14.11388 12.8883,-17.31618c3.06394,-1.46278 6.44415,-2.27324 10.02204,-2.27324l145.32944,0c17.21735,0 33.28819,1.12674 47.95555,3.49882c4.19067,0.67209 8.26275,1.44302 12.23598,2.31278c3.95347,0.88953 7.8081,1.8779 11.54412,2.9651c1.85813,0.55349 3.69649,1.12674 5.49532,1.69999c7.21508,2.39185 13.9162,5.21858 20.10338,8.48019c7.27438,-46.39393 -0.0593,-77.98213 -25.14405,-106.58547c-27.6545,-31.48936 -77.56702,-44.97069 -141.43528,-44.97069l-185.4176,0c-13.04644,0 -24.17545,9.48832 -26.19172,22.39639l-77.23098,489.53804c-1.52208,9.68599 5.94997,18.42316 15.71503,18.42316l114.47263,0l28.7417,-182.35366l30.91611,-195.81522z"/>
  </g>
 </g>
</svg>