
<svg xmlns="http://www.w3.org/2000/svg" width="26.552" height="31.375" viewBox="0 0 26.552 31.375">
  <g id="Group_37" data-name="Group 37" transform="translate(-804.319 -4034.833)">
    <path id="Path_45" data-name="Path 45" d="M75.188,0a.843.843,0,0,0,.242.054A2.233,2.233,0,0,1,77.092,1.83a3.655,3.655,0,0,1,.041.716,10.147,10.147,0,0,1-.019,1.038,1.023,1.023,0,0,1-2.039-.048,5,5,0,0,1-.01-.685.721.721,0,0,0-.771-.77q-7.753.007-15.505,0H57.65a.7.7,0,0,0-.76.755,3.991,3.991,0,0,1-.036.837.968.968,0,0,1-1.035.816.951.951,0,0,1-.886-.905,8.723,8.723,0,0,1,.013-1.656,2.207,2.207,0,0,1,1.793-1.9c.029,0,.069.008.088-.031h.044a.46.46,0,0,0,.159.011H74.984A.464.464,0,0,0,75.143,0Z" transform="translate(751.546 4034.833)" fill="#fff"/>
    <path id="Path_46" data-name="Path 46" d="M1.017,726.518a.593.593,0,0,1,.4.4c.225.538.461,1.071.7,1.615a.473.473,0,0,0,.111-.219c.2-.484.427-.957.613-1.447A.512.512,0,0,1,3.3,726.5a.25.25,0,0,1,.132,0,.548.548,0,0,1,.4.357c.02.045,0,.1.017.141a.856.856,0,0,0,.028.257c.018.037,0,.08.017.116a2.322,2.322,0,0,0,.049.437c.018.037,0,.08.017.117a.866.866,0,0,0,.028.259c.018.036,0,.079.017.115l0,.062c.018.037,0,.08.017.117a.868.868,0,0,0,.028.259c.018.037,0,.079.017.115a2.269,2.269,0,0,0,.049.438c.018.037,0,.08.017.117a.418.418,0,0,1-.175.3H3.717a.3.3,0,0,1-.206-.284c-.039-.285-.07-.57-.1-.856-.041-.362-.091-.724-.126-1.087a.094.094,0,0,1,0-.054c-.276.649-.559,1.3-.839,1.943a.33.33,0,0,1-.632,0c-.26-.614-.533-1.223-.792-1.838a.134.134,0,0,0-.034-.053c-.042.248-.062.488-.091.728-.048.395-.1.79-.14,1.185-.015.145-.058.277-.223.319H.31a.231.231,0,0,1-.177-.2v-.31c.053-.08.017-.175.046-.259.02-.037,0-.08.017-.117l0-.062c.022-.036,0-.078.017-.115l.049-.438c.021-.036,0-.079.017-.115l.049-.437c.021-.036,0-.079.017-.116L.4,727.1c.02-.037,0-.08.017-.117a.445.445,0,0,1,.4-.469.6.6,0,0,1,.2,0" transform="translate(804.191 3336.494)" fill="#fff"/>
    <path id="Path_47" data-name="Path 47" d="M475.534,730.2a.128.128,0,0,1-.088-.027c-.032.005-.049-.016-.067-.037-.228-.222-.4-.494-.6-.735-.036-.017-.041-.057-.064-.084l-.091-.115c-.036-.017-.041-.057-.064-.084l-.091-.115c-.036-.017-.041-.057-.063-.083l-.624-.8c-.055.022-.027.069-.027.1,0,.567,0,1.133,0,1.7a.366.366,0,0,1-.007.12c-.015.106-.1.165-.159.244H473.3c-.036-.072-.135-.1-.135-.2a.164.164,0,0,1-.008-.076q0-1.229,0-2.457a.192.192,0,0,1,.007-.076.356.356,0,0,1,.3-.3.455.455,0,0,1,.446.179q.647.835,1.3,1.667a1.578,1.578,0,0,0,.187.227c.053.007.038-.034.038-.059,0-.6.007-1.208,0-1.812a.1.1,0,0,1,.016-.078.269.269,0,0,1,.266-.21.309.309,0,0,1,.312.21.159.159,0,0,1,.008.076q0,1.218,0,2.436a.162.162,0,0,1-.008.076.464.464,0,0,1-.335.314.343.343,0,0,1-.154,0" transform="translate(349.496 3335.911)" fill="#fff"/>
    <path id="Path_48" data-name="Path 48" d="M389.791,729.525l.006-.081c.019-.037,0-.08.017-.118l.006-.081c.019-.038,0-.081.017-.118l.006-.08c.018-.038,0-.081.017-.12.016-.175.031-.35.049-.524a1.455,1.455,0,0,1,.742-1.219,1.224,1.224,0,0,1,.429-.119.882.882,0,0,1,.243,0,1.287,1.287,0,0,1,.711.331,1.531,1.531,0,0,1,.44.962c.034.3.076.6.114.9.018.036,0,.079.017.115l0,.062c.018.037,0,.079.017.116a1.689,1.689,0,0,0,.027.328.3.3,0,0,1-.247.351.3.3,0,0,1-.328-.272c-.024-.182-.048-.365-.068-.548-.026-.245-.025-.245-.269-.245h-.752a.3.3,0,1,1,0-.587c.28,0,.56,0,.84,0,.065,0,.09-.009.076-.084a2.055,2.055,0,0,0-.066-.346.684.684,0,0,0-.663-.5.722.722,0,0,0-.626.542,4.385,4.385,0,0,0-.087.645c-.044.358-.085.717-.118,1.076a.374.374,0,0,1-.238.346h-.177a.365.365,0,0,1-.175-.414c.02-.037,0-.079.017-.116l.006-.082c.02-.037,0-.08.017-.117" transform="translate(429.683 3335.947)" fill="#fff"/>
    <path id="Path_49" data-name="Path 49" d="M108.046,726.968c.053-.162.125-.225.268-.234s.242.07.314.234a1.362,1.362,0,0,1,.007.252q0,.687,0,1.375a.384.384,0,0,1-.006.12,1.338,1.338,0,0,1-.742,1.073,1.312,1.312,0,0,1-.3.1c-.039.01-.088,0-.116.043h-.066a.377.377,0,0,0-.2,0h-.066a1.3,1.3,0,0,0-.256-.077,1.336,1.336,0,0,1-.87-.988.509.509,0,0,1-.006-.109c-.015-.157-.005-.315-.006-.472,0-.414,0-.829,0-1.243a.354.354,0,0,1,.007-.12.257.257,0,0,1,.314-.2.281.281,0,0,1,.264.292c0,.382,0,.765,0,1.148,0,.154,0,.309,0,.463.017.037,0,.079.017.115a.659.659,0,0,0,.445.546.723.723,0,0,0,.953-.477c.007-.023.014-.047.02-.07a.251.251,0,0,0,.01-.119q0-.767,0-1.533a.352.352,0,0,1,.007-.12" transform="translate(702.424 3336.269)" fill="#fff"/>
    <path id="Path_50" data-name="Path 50" d="M555.294,729.652l.005,0,.006,0a8.977,8.977,0,0,0,.9,0,.323.323,0,0,1,.19.067c.051-.007.052.037.066.067.085.215.057.287-.176.461h-.044a1.919,1.919,0,0,0-.382-.01,4.925,4.925,0,0,0-.591.01h-.088a1.345,1.345,0,0,0-.271-.086,1.239,1.239,0,0,1-.542-.447c-.029-.013-.033-.045-.048-.068l-.092-.24a.129.129,0,0,1-.021-.088c.02-.03,0-.059,0-.089-.013-.383-.011-.766,0-1.149a1.068,1.068,0,0,1,.091-.355c-.01-.028.007-.047.022-.066l.158-.219a.172.172,0,0,1,.112-.112,2.445,2.445,0,0,1,.265-.177.056.056,0,0,1,.064-.025.251.251,0,0,0,.113-.035c.023-.036.056-.028.089-.021l.085-.012c.361-.013.722-.011,1.083,0a.492.492,0,0,1,.175.12.048.048,0,0,1,.028.061.37.37,0,0,1-.006.236c-.022.052-.029.118-.109.115a.309.309,0,0,1-.154.051c-.27.016-.54,0-.81.007a.738.738,0,0,0-.142,0,.139.139,0,0,1-.11.029.439.439,0,0,0-.245.173c-.015.021-.016.053-.045.065a.385.385,0,0,0-.088.25c0,.3.006.6,0,.9a.585.585,0,0,0,.426.573.07.07,0,0,1,.089.006" transform="translate(271.594 3335.954)" fill="#fff"/>
    <path id="Path_51" data-name="Path 51" d="M181.412,729.255a.48.48,0,0,0,.454.4c.253,0,.506.007.759,0a.347.347,0,0,1,.383.221.245.245,0,0,1,0,.132.406.406,0,0,1-.225.244h-.044a4.32,4.32,0,0,0-.558-.01,1.575,1.575,0,0,0-.349.01h-.089c-.031-.054-.091-.031-.135-.043a1.1,1.1,0,0,1-.789-.812.509.509,0,0,1-.009-.118.365.365,0,0,1-.007-.12q0-.886,0-1.773a.289.289,0,0,1,.008-.12.285.285,0,0,1,.2-.2.4.4,0,0,1,.176,0,.356.356,0,0,1,.2.357c0,.575,0,1.149,0,1.724.018.036-.006.078.017.113" transform="translate(630.521 3335.954)" fill="#fff"/>
    <path id="Path_53" data-name="Path 53" d="M322.716,809c.014-.032.043-.022.067-.022H324.2c.024,0,.053-.011.067.022Z" transform="translate(494.107 3257.2)" fill="#fff"/>
    <path id="Path_54" data-name="Path 54" d="M581.925,809.016c.011-.027.034-.023.056-.023h.85c.024,0,.053-.009.068.022Z" transform="translate(244.941 3257.186)" fill="#fff"/>
    <path id="Path_55" data-name="Path 55" d="M207.385,809.026c.011-.026.035-.022.056-.022h.794c.021,0,.045,0,.057.022Z" transform="translate(604.969 3257.176)" fill="#fff"/>
    <path id="Path_56" data-name="Path 56" d="M.005,804.446a.528.528,0,0,0,.177.2c-.059,0-.16.018-.169,0a.529.529,0,0,1-.008-.2" transform="translate(804.318 3261.556)" fill="#fff"/>
    <path id="Path_57" data-name="Path 57" d="M137.159,808.917a.2.2,0,0,1,.2,0Z" transform="translate(672.474 3257.284)" fill="#fff"/>
    <path id="Path_58" data-name="Path 58" d="M648.334,808.946a.051.051,0,0,0,0,.019h-.177c.055-.045.119-.015.179-.019" transform="translate(181.277 3257.236)" fill="#fff"/>
    <path id="Path_59" data-name="Path 59" d="M253.239,808.2a.02.02,0,0,0,0,.021h-.177c0-.008,0-.015,0-.023a.135.135,0,0,1,.177,0" transform="translate(561.063 3257.977)" fill="#fff"/>
    <path id="Path_60" data-name="Path 60" d="M300.433,808.28a.033.033,0,0,0,0-.021.112.112,0,0,1,.157,0,.029.029,0,0,0,0,.02Z" transform="translate(515.527 3257.922)" fill="#fff"/>
    <path id="Path_63" data-name="Path 63" d="M28.438,173.618l.006.082c.017.039,0,.082.017.121a1.194,1.194,0,0,0,.028.3c.017.037,0,.079.016.116l.005.083c.017.037,0,.08.016.117l.006.082c.017.038,0,.08.016.118l.006.081c.017.038,0,.081.016.12l.006.08c.017.039,0,.082.017.121l.006.1a.348.348,0,0,1,0,.154,1.1,1.1,0,0,1-.758.958,1.069,1.069,0,0,1-1.343-.588c-.008-.02-.018-.04-.027-.06a8.252,8.252,0,0,1-.151-1.137c-.084-.717-.159-1.435-.237-2.153s-.153-1.414-.23-2.12-.156-1.421-.234-2.131q-.049-.45-.1-.9c0-.028-.005-.055-.008-.088-.047.017-.045.055-.056.083q-1.548,3.934-3.095,7.869a.748.748,0,0,1-.426.579,1.289,1.289,0,0,1-.875.11,1.347,1.347,0,0,1-.556-.264.377.377,0,0,1-.153-.225,4.531,4.531,0,0,0-.28-.763q-1.453-3.652-2.914-7.3c-.013-.032-.028-.063-.055-.121-.058.532-.112,1.032-.166,1.532q-.117,1.071-.234,2.142t-.23,2.12q-.117,1.077-.235,2.153c-.014.132-.025.265-.05.394a1.092,1.092,0,0,1-2.157-.332q.216-2,.432-4,.2-1.884.413-3.768c.075-.681.142-1.363.226-2.043a1.789,1.789,0,0,1,1.508-1.51,1.825,1.825,0,0,1,1.992,1.153q1.331,3.374,2.67,6.745l.03.074c.038-.026.041-.068.055-.1q1.32-3.349,2.637-6.7a1.813,1.813,0,0,1,1.831-1.2,1.784,1.784,0,0,1,1.688,1.543c.109.944.208,1.889.312,2.834q.161,1.467.323,2.933.138,1.263.274,2.527c0,.029.011.057.017.085" transform="translate(790.837 3877.481)" fill="#fff"/>
    <path id="Path_64" data-name="Path 64" d="M27.646,535.25q0,.27,0,.539c-.024.059,0,.123-.017.183a3.61,3.61,0,0,1-.353,1.289,1.962,1.962,0,0,1-1.314,1.037,3.166,3.166,0,0,1-.417.068.375.375,0,0,1-.121.007H3.546a.373.373,0,0,1-.121-.007,2.249,2.249,0,0,1-.841-.206,1.819,1.819,0,0,1-.653-.516,2.7,2.7,0,0,1-.51-1.106,3.026,3.026,0,0,1-.08-.587c-.02-.06.007-.123-.016-.183v-.495c.023-.06,0-.124.016-.184a4.545,4.545,0,0,1,.092-.683.72.72,0,0,1,.573-.583,1.062,1.062,0,0,1,.947.172.694.694,0,0,1,.274.606c0,.306-.01.612,0,.917a.832.832,0,0,0,.743.766c.088.007.177.011.265.011H24.759a.371.371,0,0,0,.153-.011.808.808,0,0,0,.728-.451.964.964,0,0,0,.109-.49c0-.258.014-.517,0-.773a.719.719,0,0,1,.494-.713,1.083,1.083,0,0,1,1,.1.781.781,0,0,1,.321.586c.015.1.032.2.049.3.017.036,0,.079.017.115l.005.107c.02.06-.007.124.016.183" transform="translate(803.045 3521.734)" fill="#fff"/>
    <path id="Path_65" data-name="Path 65" d="M220.221,730.162l-.177,0a.256.256,0,0,1-.193-.248c0-.741,0-1.481,0-2.222,0-.093-.016-.125-.118-.122-.254.008-.508,0-.763,0a.293.293,0,0,1-.253-.217.32.32,0,0,1,.149-.331.482.482,0,0,1,.21-.036h2.112c.211,0,.328.077.359.23a.291.291,0,0,1-.305.358c-.229,0-.457.007-.685,0-.107,0-.122.034-.122.128,0,.708,0,1.415,0,2.123a.316.316,0,0,1-.217.343" transform="translate(594.081 3336.019)" fill="#fff"/>
    <path id="Path_66" data-name="Path 66" d="M295.39,730.268l-.157,0a.259.259,0,0,1-.2-.244.192.192,0,0,1-.007-.076q0-1.262,0-2.523a.191.191,0,0,1,.007-.076.274.274,0,0,1,.183-.242.306.306,0,0,1,.346.115c.019.026.034.055.051.083a.173.173,0,0,1,.009.087q0,1.3,0,2.592a.172.172,0,0,1-.009.087c-.055.088-.1.188-.221.2" transform="translate(520.726 3335.914)" fill="#fff"/>
    <path id="Path_69" data-name="Path 69" d="M310.2,735.279q0-1.382,0-2.765c.034.033.02.076.02.115q0,1.267,0,2.535c0,.039.014.082-.02.115" transform="translate(506.142 3330.701)" fill="#fff"/>
    <path id="Path_70" data-name="Path 70" d="M294.717,733.66v2.676c-.029-.031-.018-.07-.018-.106q0-1.232,0-2.465c0-.036-.011-.074.018-.106" transform="translate(521.04 3329.6)" fill="#fff"/>
    <path id="Path_71" data-name="Path 71" d="M472.849,737.087q0,1.3,0,2.61c-.031-.031-.019-.069-.019-.1q0-1.2,0-2.4c0-.036-.011-.074.018-.106" transform="translate(349.81 3326.306)" fill="#fff"/>
    <path id="Path_72" data-name="Path 72" d="M547.157,735.1v-2.588c.031.03.019.069.019.1q0,1.189,0,2.378c0,.036.011.074-.019.1" transform="translate(278.362 3330.699)" fill="#fff"/>
    <path id="Path_73" data-name="Path 73" d="M180.528,732.514q0,1.006,0,2.012c-.029-.031-.018-.07-.018-.106q0-.9,0-1.8c0-.035-.012-.075.02-.1" transform="translate(630.806 3330.701)" fill="#fff"/>
    <path id="Path_74" data-name="Path 74" d="M488.242,754.738q0-.953,0-1.907c0-.017-.016-.045.017-.05.005,0,.014.022.021.034-.03.035-.017.078-.017.117,0,.56,0,1.119,0,1.679,0,.043.015.089-.018.128" transform="translate(335 3311.22)" fill="#fff"/>
    <path id="Path_75" data-name="Path 75" d="M531.017,734.21q0,.936,0,1.871c0,.018.013.047-.017.052-.008,0-.021-.027-.031-.041.044-.033.027-.081.027-.122q0-.869,0-1.738c-.011-.022,0-.024.018-.022" transform="translate(293.921 3329.072)" fill="#fff"/>
    <path id="Path_76" data-name="Path 76" d="M105.746,731.948q0,.918,0,1.835c-.026-.028-.018-.062-.018-.095q0-.823,0-1.646c0-.032-.009-.067.019-.094" transform="translate(702.689 3331.245)" fill="#fff"/>
    <path id="Path_77" data-name="Path 77" d="M158.275,733.089q0,.794,0,1.589a.373.373,0,0,1-.02.184q0-.839,0-1.679c0-.032-.009-.067.019-.094" transform="translate(652.195 3330.149)" fill="#fff"/>
    <path id="Path_78" data-name="Path 78" d="M173.784,734.836q0-.874,0-1.747c.027.027.019.062.019.094q0,.779,0,1.558c0,.032.009.067-.018.095" transform="translate(637.269 3330.149)" fill="#fff"/>
    <path id="Path_79" data-name="Path 79" d="M553.962,753.644q0,.575,0,1.15a.087.087,0,0,1-.019-.072q0-.5,0-1.005a.091.091,0,0,1,.018-.073" transform="translate(271.838 3310.39)" fill="#fff"/>
    <path id="Path_82" data-name="Path 82" d="M583.694,794.222c-.258.028-.516.005-.774.012a.248.248,0,0,1-.129-.012h.9" transform="translate(244.109 3271.384)" fill="#fff"/>
    <path id="Path_83" data-name="Path 83" d="M614.384,757.638v.8c-.017,0-.028,0-.018-.021,0-.219,0-.439,0-.659,0-.039-.013-.081.018-.115" transform="translate(213.762 3306.551)" fill="#fff"/>
    <path id="Path_91" data-name="Path 91" d="M509.4,779.446a.122.122,0,0,1,.064.084c-.066.006-.065-.038-.064-.084" transform="translate(314.656 3285.588)" fill="#fff"/>
    <path id="Path_94" data-name="Path 94" d="M611.085,795.614l-.066-.067c.064-.028.065-.028.066.067" transform="translate(216.974 3270.126)" fill="#fff"/>
    <path id="Path_99" data-name="Path 99" d="M513.4,784.582a.12.12,0,0,1,.064.084c-.066.006-.066-.038-.064-.084" transform="translate(310.815 3280.651)" fill="#fff"/>
    <path id="Path_100" data-name="Path 100" d="M505.4,774.314a.122.122,0,0,1,.063.084c-.066.006-.065-.038-.063-.084" transform="translate(318.498 3290.521)" fill="#fff"/>
    <path id="Path_103" data-name="Path 103" d="M534.544,807.37h.154a.149.149,0,0,1-.154,0" transform="translate(290.486 3258.746)" fill="#fff"/>
    <path id="Path_104" data-name="Path 104" d="M530.539,805.724l.067.037c-.055.047-.065.013-.067-.037" transform="translate(294.336 3260.328)" fill="#fff"/>
    <path id="Path_105" data-name="Path 105" d="M580.3,793l-.089-.006c.035-.08.061-.033.089.006" transform="translate(246.588 3272.606)" fill="#fff"/>
    <path id="Path_117" data-name="Path 117" d="M237.7,800.018q0-.066,0-.132a.109.109,0,0,1,0,.132" transform="translate(575.83 3265.94)" fill="#fff"/>
    <path id="Path_118" data-name="Path 118" d="M553.986,785.61c.014.028.044.052.021.088-.034-.023-.062-.047-.021-.088" transform="translate(271.817 3279.663)" fill="#fff"/>
    <path id="Path_119" data-name="Path 119" d="M613.937,777.619l.019.021,0,.067c-.036-.022-.065-.046-.023-.088" transform="translate(214.189 3287.344)" fill="#fff"/>
    <path id="Path_121" data-name="Path 121" d="M391.8,780.476a.208.208,0,0,1-.017.119c0-.04-.016-.083.017-.119" transform="translate(427.723 3284.598)" fill="#fff"/>
    <path id="Path_123" data-name="Path 123" d="M196.008,781.16a.154.154,0,0,1-.017-.113c.031.034.014.075.017.113" transform="translate(615.925 3284.049)" fill="#fff"/>
    <path id="Path_124" data-name="Path 124" d="M1.841,782.189a.2.2,0,0,1-.017.115c0-.039-.015-.08.017-.115" transform="translate(802.568 3282.951)" fill="#fff"/>
    <path id="Path_125" data-name="Path 125" d="M385.615,783.441q0-.055,0-.11a.084.084,0,0,1,0,.11" transform="translate(433.645 3281.853)" fill="#fff"/>
    <path id="Path_126" data-name="Path 126" d="M463.236,784.016a.2.2,0,0,1-.017-.115c.032.034.015.076.017.115" transform="translate(359.049 3281.306)" fill="#fff"/>
    <path id="Path_127" data-name="Path 127" d="M101.258,784.588a.2.2,0,0,1-.017-.115c.032.035.015.076.017.115" transform="translate(707.001 3280.756)" fill="#fff"/>
    <path id="Path_129" data-name="Path 129" d="M391.225,785.614a.207.207,0,0,1-.017.118c0-.04-.016-.082.017-.118" transform="translate(428.271 3279.659)" fill="#fff"/>
    <path id="Path_130" data-name="Path 130" d="M121.228,776.025a.169.169,0,0,1-.017-.115c.031.035.014.076.017.115" transform="translate(687.806 3288.987)" fill="#fff"/>
    <path id="Path_132" data-name="Path 132" d="M463.8,788.585a.2.2,0,0,1-.017-.116c.032.035.015.077.017.116" transform="translate(358.505 3276.915)" fill="#fff"/>
    <path id="Path_133" data-name="Path 133" d="M390.654,790.753a.207.207,0,0,1-.017.117c0-.039-.015-.082.017-.117" transform="translate(428.82 3274.719)" fill="#fff"/>
    <path id="Path_135" data-name="Path 135" d="M557.4,794.081c.027.015.051.032.048.068-.05,0-.05-.032-.048-.068" transform="translate(268.521 3271.52)" fill="#fff"/>
    <path id="Path_139" data-name="Path 139" d="M390.083,795.892a.206.206,0,0,1-.017.116c0-.039-.015-.081.017-.116" transform="translate(429.369 3269.779)" fill="#fff"/>
    <path id="Path_140" data-name="Path 140" d="M622.479,796.952a.06.06,0,0,1,.051.066c-.05,0-.053-.03-.051-.066" transform="translate(205.958 3268.76)" fill="#fff"/>
    <path id="Path_141" data-name="Path 141" d="M102.969,798.863a.21.21,0,0,1-.017-.117c.032.035.015.077.017.117" transform="translate(705.357 3267.036)" fill="#fff"/>
    <path id="Path_142" data-name="Path 142" d="M392.367,775.337a.208.208,0,0,1-.017.12c0-.04-.016-.083.017-.12" transform="translate(427.174 3289.538)" fill="#fff"/>
    <path id="Path_143" data-name="Path 143" d="M624.8,799.7c.038,0,.05.025.066.05-.036,0-.069,0-.066-.05" transform="translate(203.723 3266.118)" fill="#fff"/>
    <path id="Path_145" data-name="Path 145" d="M100.105,774.883a.2.2,0,0,1-.017-.117c.033.035.015.078.017.117" transform="translate(708.11 3290.086)" fill="#fff"/>
    <path id="Path_148" data-name="Path 148" d="M99.549,770.315a.2.2,0,0,1-.017-.115c.032.034.015.076.017.115" transform="translate(708.645 3294.476)" fill="#fff"/>
    <path id="Path_149" data-name="Path 149" d="M3.554,767.915a.2.2,0,0,1-.017.115c0-.039-.015-.081.017-.115" transform="translate(800.921 3296.672)" fill="#fff"/>
    <path id="Path_153" data-name="Path 153" d="M1.271,786.756a.2.2,0,0,1-.017.117c0-.039-.015-.082.017-.117" transform="translate(803.116 3278.561)" fill="#fff"/>
    <path id="Path_154" data-name="Path 154" d="M319.227,729.465a.947.947,0,0,0-.409-.715c-.048-.032-.034-.054-.016-.087a1.206,1.206,0,0,0,.116-.371q0-.077,0-.154a.961.961,0,0,0-.8-.844h-1.349a.27.27,0,0,0-.214.252c-.005.875,0,1.75,0,2.626a.291.291,0,0,0,.168.283c.014.007.024.01.026.026h.044a.115.115,0,0,1,.075-.011h1.4a.115.115,0,0,1,.075.011h.066c.026-.05.077-.022.116-.035a.988.988,0,0,0,.707-.872.192.192,0,0,0,0-.11m-.969.421c-.347,0-.693,0-1.04,0-.064,0-.079-.02-.078-.081,0-.313,0-.627,0-.94s0-.6,0-.907c0-.072.018-.093.091-.091.247,0,.494,0,.741,0a.346.346,0,1,1,0,.69,1.056,1.056,0,0,0-.11,0,.3.3,0,0,0-.273.3.293.293,0,0,0,.28.288c.128.009.258,0,.387,0a.37.37,0,0,1,.383.371.366.366,0,0,1-.38.362" transform="translate(500.033 3335.719)" fill="#fff"/>
    <path id="Path_155" data-name="Path 155" d="M617.159,727.577a.051.051,0,0,0-.028-.061c-.049-.062-.1-.127-.148-.187a1.422,1.422,0,0,0-.845-.462c-.047-.018-.1,0-.144-.017a.148.148,0,0,1-.089,0c-.046.02-.1,0-.142.016a1.5,1.5,0,0,0-.706.293c-.022.017-.054.019-.067.049l-.24.306a.076.076,0,0,0-.045.066,2.278,2.278,0,0,0-.118.463.358.358,0,0,0-.007.12c0,.221.005.441,0,.662a.1.1,0,0,0,.015.08,1.4,1.4,0,0,0,.289.661c.017.022.019.056.051.066a.061.061,0,0,1,.039.041c.012.031.045.033.066.05a1.617,1.617,0,0,0,.471.263c.092.034.2.012.279.07h.089a.532.532,0,0,1,.171-.011,1.2,1.2,0,0,0,.873-.361,1.235,1.235,0,0,0,.394-.756v-.088a.06.06,0,0,1-.023-.058v-.658a.061.061,0,0,1,.023-.058V728c-.059-.137-.079-.289-.152-.421m-.44,1.188a.778.778,0,0,1-1.551-.041,3.575,3.575,0,0,1,.015-.672.763.763,0,0,1,.828-.607.751.751,0,0,1,.708.691c.008.106,0,.214,0,.32s.007.207,0,.309" transform="translate(213.56 3336.147)" fill="#fff"/>
    <path id="Path_156" data-name="Path 156" d="M422.187,178.528a.033.033,0,0,1,0-.043c-.023-.069,0-.141-.016-.21-.027-.132-.04-.266-.068-.4a3.258,3.258,0,0,0-1.331-2.026,3.957,3.957,0,0,0-.556-.322,3.555,3.555,0,0,0,.681-1.02,3.987,3.987,0,0,0,.278-1.035c.019-.054,0-.112.017-.165q0-.188,0-.376c-.02-.046,0-.1-.016-.144s-.02-.1-.026-.151a3.41,3.41,0,0,0-.444-1.275,3.924,3.924,0,0,0-.665-.825c-.026-.02-.053-.039-.078-.06a3.44,3.44,0,0,0-2.265-.825c-1.493,0-2.986,0-4.478,0a1.106,1.106,0,0,0-.274.03.91.91,0,0,0-.692.932q0,4.08,0,8.16,0,1.111,0,2.222a.708.708,0,0,0,.107.372.877.877,0,0,0,.761.45.275.275,0,0,0,.1.007h5.377a.277.277,0,0,0,.1-.007l.234-.006c.038-.018.081,0,.12-.015a3.76,3.76,0,0,0,1.422-.464,3.494,3.494,0,0,0,1.013-.866,3.261,3.261,0,0,0,.688-1.705c.02-.077-.008-.157.017-.233m-1.871-.177a1.693,1.693,0,0,1-1.719,1.657c-1.449,0-2.9,0-4.346,0-.1,0-.117-.029-.117-.122q0-2.1,0-4.191t0-4.191c0-.086.012-.118.11-.117,1.121,0,2.241,0,3.362,0a1.64,1.64,0,0,1,1.647,1.39,1.661,1.661,0,0,1-1.27,1.866,1.766,1.766,0,0,1-.39.039c-.464,0-.929,0-1.393,0a.963.963,0,0,0-.989.749.948.948,0,0,0,.843,1.157c.279.019.56.009.84.01.619,0,1.239-.017,1.857.011a1.68,1.68,0,0,1,1.566,1.734" transform="translate(408.04 3871.756)" fill="#fff"/>
  </g>
</svg>
