<svg xmlns="http://www.w3.org/2000/svg" width="24" height="24" viewBox="0 0 24 24"><defs><style>.a{fill:#54565a;}</style></defs><path class="a" d="M8.3,21.793l.869.508A9.6,9.6,0,1,0,5.7,18.829l.506.869-.784,2.881,2.88-.786ZM2,26l1.622-5.962a11.995,11.995,0,1,1,4.337,4.336ZM9.669,8.37a4.065,4.065,0,0,1,.484,0c.065,0,.13.012.194.019a.6.6,0,0,1,.472.3q.536,1.217,1.042,2.448a.728.728,0,0,1-.112.644,5.256,5.256,0,0,1-.316.446c-.136.174-.427.493-.427.493a.385.385,0,0,0-.073.318,1.062,1.062,0,0,0,.122.246l.071.114a7.6,7.6,0,0,0,1.224,1.522c.144.139.284.282.436.415a7.212,7.212,0,0,0,1.884,1.2l.006,0c.1.044.154.068.3.132a1.724,1.724,0,0,0,.229.079.42.42,0,0,0,.44-.156,14.013,14.013,0,0,1,.955-1.121v0a.578.578,0,0,1,.454-.152.621.621,0,0,1,.212.048c.637.292,1.68.746,1.68.746l.7.313a.4.4,0,0,1,.228.318,2.316,2.316,0,0,1-.016.448,3.342,3.342,0,0,1-.226.88,1.386,1.386,0,0,1-.252.362,2.854,2.854,0,0,1-.4.346q-.074.056-.15.108-.224.142-.46.264a2.388,2.388,0,0,1-1,.276,6.186,6.186,0,0,1-.667.017c-.01,0-.682-.1-.682-.1a11.338,11.338,0,0,1-4.608-2.455c-.271-.239-.522-.5-.779-.751a11.411,11.411,0,0,1-2.364-3.29,4.164,4.164,0,0,1-.4-1.7,3.275,3.275,0,0,1,.677-2.016,2.838,2.838,0,0,1,.313-.366,1.527,1.527,0,0,1,.353-.274,1.153,1.153,0,0,1,.445-.12Z" transform="translate(-2 -2)"/></svg>