<svg xmlns="http://www.w3.org/2000/svg" width="24.184" height="24" viewBox="0 0 24.184 24"><defs><style>.a{fill:#54565a;fill-rule:evenodd;}.b{fill:none;}</style></defs><g transform="translate(0.184)"><path class="a" d="M12.092,2.133a37.359,37.359,0,0,1,4.837.133,6.273,6.273,0,0,1,2.284.4A4.7,4.7,0,0,1,21.5,4.933,6.143,6.143,0,0,1,21.9,7.2c0,1.2.134,1.6.134,4.8a36.516,36.516,0,0,1-.134,4.8,6.143,6.143,0,0,1-.4,2.267,4.7,4.7,0,0,1-2.284,2.267,6.273,6.273,0,0,1-2.284.4c-1.209,0-1.612.133-4.837.133a37.358,37.358,0,0,1-4.837-.133,6.273,6.273,0,0,1-2.284-.4,4.7,4.7,0,0,1-2.284-2.267,6.143,6.143,0,0,1-.4-2.267c0-1.2-.134-1.6-.134-4.8a36.516,36.516,0,0,1,.134-4.8,6.143,6.143,0,0,1,.4-2.267A4.789,4.789,0,0,1,3.628,3.6a2.272,2.272,0,0,1,1.344-.933,6.273,6.273,0,0,1,2.284-.4,37.359,37.359,0,0,1,4.837-.133m0-2.133A40,40,0,0,0,7.121.133,8.351,8.351,0,0,0,4.165.667,5.266,5.266,0,0,0,2.015,2,5.214,5.214,0,0,0,.672,4.133,6.035,6.035,0,0,0,.134,7.067,39.1,39.1,0,0,0,0,12a39.1,39.1,0,0,0,.134,4.933,8.176,8.176,0,0,0,.537,2.933A5.214,5.214,0,0,0,2.015,22a5.266,5.266,0,0,0,2.15,1.333,8.351,8.351,0,0,0,2.956.533A40,40,0,0,0,12.092,24a40,40,0,0,0,4.971-.133,8.351,8.351,0,0,0,2.956-.533,5.616,5.616,0,0,0,3.493-3.467,8.176,8.176,0,0,0,.537-2.933c0-1.333.134-1.733.134-4.933a39.1,39.1,0,0,0-.134-4.933,8.176,8.176,0,0,0-.537-2.933A5.214,5.214,0,0,0,22.169,2,5.266,5.266,0,0,0,20.019.667,8.351,8.351,0,0,0,17.063.133,40,40,0,0,0,12.092,0m0,5.867A6.058,6.058,0,0,0,5.912,12a6.18,6.18,0,1,0,6.18-6.133m0,10.133a4,4,0,1,1,0-8,4,4,0,1,1,0,8M18.541,4.133A1.467,1.467,0,1,0,20.019,5.6a1.485,1.485,0,0,0-1.478-1.467" transform="translate(-0.184)"/><rect class="b" width="11.516" height="24" transform="translate(6.43)"/></g></svg>