<svg xmlns="http://www.w3.org/2000/svg" width="25" height="24.999" viewBox="0 0 25 24.999"><defs><style>.a{fill:#54565a;}</style></defs><path class="a" d="M14.5,2C21.543,2,27,7.159,27,14.125S21.543,26.25,14.5,26.25a13.617,13.617,0,0,1-3.619-.48,1,1,0,0,0-.668.049l-2.48,1.1a1,1,0,0,1-1.4-.884l-.069-2.225a1,1,0,0,0-.335-.713A11.852,11.852,0,0,1,2,14.125C2,7.159,7.459,2,14.5,2ZM6.994,17.671a.593.593,0,0,0,.861.789L11.8,15.468a.75.75,0,0,1,.9,0l2.921,2.188a1.875,1.875,0,0,0,2.711-.5l3.671-5.825a.594.594,0,0,0-.861-.791l-3.944,3a.75.75,0,0,1-.9,0l-2.921-2.188a1.875,1.875,0,0,0-2.711.5L6.994,17.671Z" transform="translate(-2 -2)"/></svg>