<svg xmlns="http://www.w3.org/2000/svg" width="25.139" height="24" viewBox="0 0 25.139 24">
  <g id="Grupo_3537" data-name="Grupo 3537" transform="translate(1.389)">
    <path id="Caminho_39" data-name="Caminho 39" d="M45.72,21.775A14.1,14.1,0,0,0,59.942,7.553V6.876A11.01,11.01,0,0,0,62.38,4.3a11.243,11.243,0,0,1-2.844.813A5.27,5.27,0,0,0,61.7,2.406a12.423,12.423,0,0,1-3.115,1.219A4.837,4.837,0,0,0,54.93,2a5.089,5.089,0,0,0-5.011,5.011,2.641,2.641,0,0,0,.135,1.084A14,14,0,0,1,39.761,2.813a5.187,5.187,0,0,0-.677,2.573,5.381,5.381,0,0,0,2.167,4.2,4.566,4.566,0,0,1-2.3-.677h0a4.95,4.95,0,0,0,4.063,4.876,4.175,4.175,0,0,1-1.354.135,2.3,2.3,0,0,1-.948-.135,5.131,5.131,0,0,0,4.74,3.522,10.226,10.226,0,0,1-6.23,2.167A3.75,3.75,0,0,1,38,19.337a12.784,12.784,0,0,0,7.72,2.438" transform="translate(-39.389 0.032)" fill="#fff"/>
    <rect id="Retângulo_2030" data-name="Retângulo 2030" width="24" height="24" transform="translate(-0.25)" fill="none"/>
  </g>
</svg>
