<svg xmlns="http://www.w3.org/2000/svg" width="21.25" height="21" viewBox="0 0 21.25 21"><defs><style>.a{fill:#737578;fill-rule:evenodd;}.b{fill:none;}</style></defs><g transform="translate(0.25)"><path class="a" d="M44.65,19.033A12.141,12.141,0,0,0,56.9,6.783V6.2A9.483,9.483,0,0,0,59,3.983a9.685,9.685,0,0,1-2.45.7A4.539,4.539,0,0,0,58.417,2.35,10.7,10.7,0,0,1,55.733,3.4,4.167,4.167,0,0,0,52.583,2a4.383,4.383,0,0,0-4.317,4.317,2.275,2.275,0,0,0,.117.933A12.062,12.062,0,0,1,39.517,2.7a4.468,4.468,0,0,0-.583,2.217A4.635,4.635,0,0,0,40.8,8.533a3.933,3.933,0,0,1-1.983-.583h0a4.264,4.264,0,0,0,3.5,4.2,3.6,3.6,0,0,1-1.167.117,1.985,1.985,0,0,1-.817-.117,4.42,4.42,0,0,0,4.083,3.033A8.809,8.809,0,0,1,39.05,17.05,3.23,3.23,0,0,1,38,16.933a11.012,11.012,0,0,0,6.65,2.1" transform="translate(-38 -0.25)"/><rect class="b" width="21" height="21" transform="translate(-0.25)"/></g></svg>