
<svg xmlns="http://www.w3.org/2000/svg" width="41.63" height="13.448" viewBox="0 0 41.63 13.448">
  <g id="Group_35" data-name="Group 35" transform="translate(-916.084 -4040.453)">
    <path id="Path_23" data-name="Path 23" d="M3034.454,135.881h-.228l-.286,0c-.061-.018-.124,0-.185-.012l-.123,0c-.039-.016-.082,0-.121-.012l-.092,0c-.028-.014-.059,0-.086-.011l-.092,0c-.028-.014-.059,0-.087-.012l-.061,0c-.027-.015-.059,0-.086-.012-.215-.028-.434-.046-.647-.087-.365-.071-.729-.146-1.087-.253-.229-.069-.451-.155-.677-.231a.081.081,0,0,1-.059-.1c.016-.113.037-.226.055-.339s.04-.248.06-.372.039-.22.057-.331c.025-.152.049-.3.074-.456s.053-.308.077-.462.044-.305.068-.457.051-.277.065-.417c0-.043.034-.016.054-.007l.438.2a7.405,7.405,0,0,0,1.76.578,1.384,1.384,0,0,0,.312.037c.026.016.058,0,.084.012l.062,0c.032.016.068,0,.1.012l.093,0c.043.017.091,0,.135.012a.925.925,0,0,0,.188,0,5.721,5.721,0,0,0,.616,0l.107,0c.027-.012.059,0,.085-.012a2.381,2.381,0,0,0,.993-.307,1.252,1.252,0,0,0,.473-.441.919.919,0,0,0,.129-.634,1.008,1.008,0,0,0-.295-.562,3.306,3.306,0,0,0-.675-.506c-.327-.2-.677-.351-1.014-.529a9.529,9.529,0,0,1-1.029-.611,5.141,5.141,0,0,1-.82-.7,3.38,3.38,0,0,1-.515-.707,2.673,2.673,0,0,1-.29-.806c-.017-.1-.027-.193-.04-.289-.013-.038,0-.08-.012-.118V126.6c.017-.044,0-.091.012-.136s0-.062,0-.093,0-.058.012-.086a3.354,3.354,0,0,1,.2-.854,3.893,3.893,0,0,1,.622-1.08,4.5,4.5,0,0,1,1.257-1.054,6.31,6.31,0,0,1,1.912-.7c.246-.05.494-.082.742-.116.027-.011.058,0,.085-.012l.077,0c.034-.012.071,0,.1-.012l.123,0c.056-.015.113.006.168-.012.276,0,.553,0,.829.011a8.388,8.388,0,0,1,2.495.512c.06.022.071.048.06.112q-.219,1.32-.431,2.64c-.015.09-.014.091-.1.05a5.912,5.912,0,0,0-1.64-.524,5.143,5.143,0,0,0-1.954.025,1.6,1.6,0,0,0-.837.453.784.784,0,0,0-.013,1.124,3,3,0,0,0,.75.563c.458.269.942.486,1.407.739a5.631,5.631,0,0,1,1.527,1.156,3.121,3.121,0,0,1,.8,2.461,3.966,3.966,0,0,1-.739,2.039,4.529,4.529,0,0,1-1.833,1.449,7.013,7.013,0,0,1-2.018.557,10.813,10.813,0,0,1-1.11.082" transform="translate(-2094.304 3918.02)" fill="#fff"/>
    <path id="Path_24" data-name="Path 24" d="M2544.441,136.305l.361,1.8.015,0c.047-.122.094-.243.14-.365q.1-.262.2-.525c.061-.164.118-.328.179-.491.135-.36.271-.72.405-1.081.115-.311.228-.622.344-.933.131-.351.266-.7.4-1.052.112-.3.22-.607.332-.909.1-.266.207-.528.3-.795.109-.31.229-.616.343-.924s.228-.606.341-.909c.1-.28.206-.561.309-.841.02-.029.05-.014.074-.014h3.424c.026,0,.054-.011.077.011-.1.248-.207.5-.309.745q-.408,1-.815,2l-.714,1.748q-.393.963-.785,1.927l-.712,1.748-.782,1.919-.714,1.748-.446,1.1a.25.25,0,0,0-.009.038c-.016.031-.045.025-.072.025h-3.452c-.026,0-.056.007-.07-.027-.053-.194-.108-.388-.159-.583-.063-.24-.122-.481-.186-.721-.089-.335-.181-.669-.271-1q-.128-.476-.254-.953c-.112-.423-.222-.846-.334-1.27-.107-.407-.214-.815-.323-1.222-.1-.375-.212-.747-.306-1.123-.083-.337-.177-.67-.264-1.006-.094-.366-.2-.73-.293-1.1-.087-.33-.168-.662-.26-.991-.1-.376-.192-.757-.307-1.131a1.629,1.629,0,0,1-.035-.183c.036-.014.063.009.09.025a11.661,11.661,0,0,1,1.641,1.177c.243.211.483.426.706.659a10.391,10.391,0,0,1,1.571,2.1,9.892,9.892,0,0,1,.554,1.155c.022.055.035.114.059.168.01.016,0,.038.012.053" transform="translate(-1620.182 3911.418)" fill="#fff"/>
    <path id="Path_25" data-name="Path 25" d="M2874.018,129.282l-.147.887c-.053.325-.108.649-.16.974-.04.248-.076.5-.116.746-.046.285-.1.57-.142.855s-.089.566-.135.849-.1.57-.142.855c-.041.248-.078.5-.119.745-.052.322-.107.644-.159.966s-.1.635-.15.952c-.041.251-.085.5-.126.752-.046.28-.088.561-.134.841-.042.256-.086.512-.127.768s-.077.5-.117.746c-.046.285-.095.57-.141.856s-.091.565-.134.848a2.446,2.446,0,0,0-.05.35c-.021.043-.062.026-.094.026q-1.466,0-2.933,0a1.889,1.889,0,0,1-.354-.009c.019-.177.051-.351.082-.526s.052-.366.082-.549c.024-.152.057-.3.081-.454s.037-.3.065-.449.049-.282.072-.423.052-.3.077-.455.053-.312.077-.469c.018-.119.027-.24.05-.358.027-.141.049-.282.072-.423s.052-.3.077-.455.052-.313.077-.469c.018-.111.034-.222.052-.333.023-.149.046-.3.07-.447s.052-.3.077-.455.053-.313.077-.469.045-.3.068-.457c.017-.108.036-.216.054-.324.026-.152.052-.3.077-.455s.052-.312.077-.469.038-.306.07-.457.043-.3.076-.455.043-.3.067-.449.05-.287.074-.43.049-.309.075-.463.052-.3.077-.454c.019-.114.035-.227.053-.341q.036-.223.072-.447c.025-.154.049-.309.075-.463s.052-.3.077-.454c.008-.044.012-.088.019-.132s.061-.028.093-.028h3.209a.154.154,0,0,1,.08.007" transform="translate(-1937.788 3911.412)" fill="#fff"/>
    <path id="Path_26" data-name="Path 26" d="M2443.231,136.309c-.118-.281-.231-.564-.366-.838a10.416,10.416,0,0,0-3.559-4.037,8.1,8.1,0,0,0-.694-.434c-.227-.122-.453-.247-.682-.366a12.257,12.257,0,0,0-1.255-.556c-.277-.107-.559-.2-.842-.292-.237-.076-.478-.139-.719-.2-.039-.01-.051-.023-.045-.058.014-.071.029-.143.044-.214.024-.02.052-.01.078-.01h5.41a.212.212,0,0,1,.073,0l.079,0c.026.016.057,0,.084.012a1.86,1.86,0,0,1,.668.222,1.258,1.258,0,0,1,.567.865c.118.563.227,1.128.338,1.693.09.457.177.915.266,1.371q.164.835.331,1.669.1.516.205,1.032c.006.029.013.058.02.086a.073.073,0,0,1,0,.048" transform="translate(-1518.984 3911.385)" fill="#fff"/>
    <path id="Path_27" data-name="Path 27" d="M2628.21,513.017c.021.031.052.022.081.023h3.429c.029,0,.06.007.083-.021-.012.054-.056.032-.087.032h-3.422c-.03,0-.075.022-.084-.034" transform="translate(-1705.591 3540.65)" fill="#fff"/>
    <path id="Path_28" data-name="Path 28" d="M2868.538,513.5c.03,0,.059,0,.089,0h3.194c.033,0,.071.015.1-.02-.009.057-.054.034-.084.034-.365,0-.73,0-1.1,0h-2.11c-.031,0-.066.014-.091-.018" transform="translate(-1937.788 3540.196)" fill="#fff"/>
    <path id="Path_29" data-name="Path 29" d="M3140.023,439.222a2.945,2.945,0,0,1-.616,0h.616" transform="translate(-2199.493 3611.949)" fill="#fff"/>
    <path id="Path_30" data-name="Path 30" d="M3071.813,241.437a.381.381,0,0,1-.012.136c0-.045-.015-.092.012-.136" transform="translate(-2134.171 3803.042)" fill="#fff"/>
    <path id="Path_31" data-name="Path 31" d="M3129.988,438.667a.343.343,0,0,1-.135-.012c.045,0,.092-.015.135.012" transform="translate(-2190.261 3612.499)" fill="#fff"/>
    <path id="Path_32" data-name="Path 32" d="M3071.809,255.191a.312.312,0,0,1,.012.118c-.026-.037-.009-.079-.012-.118" transform="translate(-2134.179 3789.753)" fill="#fff"/>
    <path id="Path_33" data-name="Path 33" d="M3124.207,438.2a.208.208,0,0,1-.1-.012c.034,0,.07-.013.1.012" transform="translate(-2184.708 3612.95)" fill="#fff"/>
    <path id="Path_34" data-name="Path 34" d="M3072.319,236.155a.148.148,0,0,1-.012.086c0-.029-.011-.06.012-.086" transform="translate(-2134.661 3808.145)" fill="#fff"/>
    <path id="Path_35" data-name="Path 35" d="M2676.336,335.091c0-.016,0-.032,0-.048.021.023.011.052.011.078l-.012-.03" transform="translate(-1752.089 3712.603)" fill="#fff"/>
    <path id="Path_36" data-name="Path 36" d="M3119.9,437.73a.148.148,0,0,1-.084-.012c.028,0,.059-.011.084.012" transform="translate(-2180.561 3613.404)" fill="#fff"/>
    <path id="Path_37" data-name="Path 37" d="M3160.867,438.679a.142.142,0,0,1-.085.012c.026-.023.057-.01.085-.012" transform="translate(-2220.144 3612.476)" fill="#fff"/>
    <path id="Path_38" data-name="Path 38" d="M3320.232,142.3q-.263-1.257-.524-2.515-.441-2.114-.883-4.228-.436-2.086-.872-4.172-.206-.984-.41-1.967c-.009-.044-.022-.068-.077-.068-.892,0-1.783,0-2.675.005a1.941,1.941,0,0,0-.873.191,1.625,1.625,0,0,0-.762.883l-4.974,11.854c-.011.025-.032.049-.022.082l.033,0q1.715,0,3.431,0c.057,0,.071-.026.087-.07.218-.6.438-1.208.656-1.813a.086.086,0,0,1,.1-.071q2.094,0,4.187,0c.055,0,.078.01.09.071.121.6.246,1.2.37,1.8.008.04.006.081.073.081q1.533,0,3.065,0v-.049c-.005-.006-.013-.011-.014-.017m-4.128-4.543h-2.7c-.011,0-.021,0-.039,0,.592-1.622,1.207-3.232,1.786-4.88.035.161.066.3.1.443q.452,2.189.906,4.379c.011.054,0,.063-.051.063" transform="translate(-2362.532 3911.341)" fill="#fff"/>
  </g>
</svg>
