<svg xmlns="http://www.w3.org/2000/svg" xmlns:xlink="http://www.w3.org/1999/xlink" width="34" height="34" viewBox="0 0 34 34">
  <defs>
    <clipPath id="clip-Wechat_pay">
      <rect width="34" height="34"/>
    </clipPath>
  </defs>
  <g id="Wechat_pay" data-name="Wechat pay" clip-path="url(#clip-Wechat_pay)">
    <rect width="34" height="34" fill="#fff"/>
    <path id="Caminho_4669" data-name="Caminho 4669" d="M168.516,237.469a1.13,1.13,0,0,1-1.5-.458l-.074-.163-3.095-6.791a.592.592,0,0,1-.054-.239.567.567,0,0,1,.906-.454l3.652,2.6a1.685,1.685,0,0,0,1.51.173l17.175-7.644a18.176,18.176,0,0,0-13.887-6c-9.389,0-17,6.343-17,14.167a13.338,13.338,0,0,0,5.874,10.708,1.133,1.133,0,0,1,.476.923,1.337,1.337,0,0,1-.06.361c-.286,1.068-.744,2.778-.766,2.858a1.663,1.663,0,0,0-.091.414.566.566,0,0,0,.567.567.638.638,0,0,0,.327-.105l3.722-2.149a1.784,1.784,0,0,1,.9-.261,1.705,1.705,0,0,1,.5.075,20.1,20.1,0,0,0,5.549.777c9.389,0,17-6.343,17-14.167a12.264,12.264,0,0,0-1.937-6.565l-19.574,11.3Z" transform="translate(-156.15 -216.493)" fill="#1aad19"/>
  </g>
</svg>
