<svg width="90" height="80" xmlns="http://www.w3.org/2000/svg" fill="none">

 <g>
  <title>Layer 1</title>
  <path stroke="null" id="svg_1" fill="#14AB39" d="m32.87315,50.40494c-0.40133,0.20265 -0.85415,0.3201 -1.33482,0.3201c-1.11144,0 -2.07885,-0.61298 -2.58674,-1.51716l-0.19386,-0.42603l-8.09852,-17.77074c-0.0873,-0.19281 -0.14194,-0.41116 -0.14194,-0.62428c0,-0.8194 0.66406,-1.48325 1.48325,-1.48325c0.33266,0 0.63936,0.10949 0.88744,0.29498l9.55519,6.80369c0.69923,0.45659 1.53266,0.72435 2.42993,0.72435c0.53594,0 1.0455,-0.09902 1.52177,-0.27278l44.94154,-20.00284c-8.05519,-9.49448 -21.32237,-15.699 -36.33617,-15.699c-24.56878,0 -44.4839,16.59649 -44.4839,37.07079c0,11.17012 5.99162,21.22524 15.3697,28.02055c0.75345,0.5374 1.24564,1.41919 1.24564,2.4157c0,0.32889 -0.07013,0.63119 -0.15576,0.9448c-0.74969,2.7942 -1.94822,7.26803 -2.00558,7.47759c-0.09253,0.35024 -0.23866,0.71598 -0.23866,1.08444c0,0.81793 0.66427,1.4822 1.48325,1.4822c0.32198,0 0.5843,-0.11933 0.85645,-0.27613l9.73879,-5.62232c0.73273,-0.4231 1.50837,-0.68437 2.3619,-0.68437c0.45513,0 0.89435,0.0695 1.3076,0.19574c4.54333,1.30677 9.44465,2.03301 14.52057,2.03301c24.56752,0 44.48348,-16.59754 44.48348,-37.0712c0,-6.20118 -1.83622,-12.04186 -5.06608,-17.17786l-51.21997,29.57268l-0.32449,0.18737z"/>
 </g>
</svg>