<?xml version="1.0" standalone="no"?>
<!DOCTYPE svg PUBLIC "-//W3C//DTD SVG 20010904//EN"
 "http://www.w3.org/TR/2001/REC-SVG-20010904/DTD/svg10.dtd">
<svg version="1.0" xmlns="http://www.w3.org/2000/svg"
 width="400.000000pt" height="400.000000pt" viewBox="0 0 400.000000 400.000000"
 preserveAspectRatio="xMidYMid meet">
<metadata>
Created by potrace 1.14, written by Peter Selinger 2001-2017
</metadata>
<g transform="translate(0.000000,400.000000) scale(0.100000,-0.100000)"
fill="#000000" stroke="none">
<path d="M0 2000 l0 -2000 2000 0 2000 0 0 2000 0 2000 -2000 0 -2000 0 0
-2000z m1648 825 c183 -269 338 -498 345 -507 10 -16 57 48 357 492 l345 510
253 0 252 0 0 -1315 0 -1315 -320 0 -320 0 -2 645 -3 645 -185 -274 -185 -275
-182 -1 -183 0 -187 281 -188 282 -3 -652 -2 -651 -320 0 -320 0 0 1315 0
1315 258 -2 257 -3 333 -490z"/>
</g>
</svg>
